<svg width="44" height="48" viewBox="0 0 44 48" fill="none" xmlns="http://www.w3.org/2000/svg">
<g clip-path="url(#clip0_1334_584)">
<path opacity="0.7" d="M12.3995 21.529C12.3995 22.126 12.4582 22.609 12.5608 22.964C12.6782 23.319 12.8239 23.706 13.0293 24.125C13.1026 24.254 13.1319 24.383 13.1319 24.496C13.1319 24.657 13.0439 24.818 12.8542 24.98L11.932 25.657C11.8 25.754 11.6689 25.802 11.5516 25.802C11.4049 25.802 11.2592 25.721 11.1125 25.576C10.9072 25.334 10.7321 25.076 10.5854 24.818C10.4388 24.544 10.293 24.238 10.1317 23.867C8.99042 25.35 7.55584 26.092 5.82884 26.092C4.59959 26.092 3.61875 25.705 2.90192 24.931C2.18509 24.157 1.81934 23.125 1.81934 21.835C1.81934 20.465 2.25842 19.352 3.15125 18.514C4.04409 17.676 5.22934 17.256 6.73634 17.256C7.23409 17.256 7.7465 17.304 8.28734 17.385C8.82817 17.466 9.38459 17.595 9.97034 17.74V16.563C9.97034 15.338 9.73659 14.483 9.28284 13.983C8.81442 13.483 8.02425 13.241 6.89767 13.241C6.38525 13.241 5.85909 13.305 5.31734 13.451C4.77559 13.596 4.24942 13.773 3.737 13.999C3.50325 14.112 3.32725 14.176 3.22459 14.209C3.12192 14.241 3.04859 14.257 2.99084 14.257C2.7855 14.257 2.68375 14.096 2.68375 13.757V12.967C2.68375 12.709 2.71309 12.516 2.78642 12.403C2.85975 12.29 2.99175 12.177 3.19617 12.064C3.70859 11.774 4.32275 11.532 5.0405 11.338C5.75734 11.128 6.51817 11.032 7.323 11.032C9.06467 11.032 10.3379 11.467 11.1574 12.338C11.9623 13.209 12.372 14.531 12.372 16.304V21.528L12.3995 21.529ZM6.45767 23.979C6.94075 23.979 7.4385 23.882 7.96467 23.689C8.49175 23.496 8.96017 23.141 9.35525 22.657C9.589 22.351 9.765 22.012 9.853 21.625C9.941 21.238 9.99967 20.77 9.99967 20.222V19.545C9.57525 19.432 9.1215 19.335 8.65309 19.271C8.18467 19.207 7.73092 19.174 7.27717 19.174C6.29634 19.174 5.5795 19.384 5.09642 19.819C4.61334 20.254 4.37959 20.867 4.37959 21.673C4.37959 22.431 4.55559 22.995 4.92134 23.382C5.27242 23.786 5.78484 23.979 6.45767 23.979ZM18.2093 25.721C17.9463 25.721 17.7703 25.673 17.6529 25.56C17.5356 25.463 17.4338 25.238 17.3458 24.931L13.9065 12.468C13.8185 12.146 13.7745 11.936 13.7745 11.823C13.7745 11.565 13.8918 11.42 14.1256 11.42H15.5602C15.8379 11.42 16.0286 11.468 16.1313 11.581C16.2486 11.678 16.3357 11.903 16.4237 12.21L18.8822 22.884L21.1647 12.21C21.238 11.888 21.326 11.678 21.4424 11.581C21.5598 11.484 21.7642 11.42 22.0282 11.42H23.1988C23.4765 11.42 23.6672 11.468 23.7845 11.581C23.9018 11.678 24.0036 11.903 24.0623 12.21L26.3741 23.013L28.9059 12.21C28.9939 11.888 29.0966 11.678 29.1983 11.581C29.3157 11.484 29.5054 11.42 29.7694 11.42H31.1307C31.3644 11.42 31.4964 11.549 31.4964 11.823C31.4964 11.904 31.4817 11.984 31.4671 12.081C31.4524 12.178 31.4231 12.307 31.3644 12.484L27.838 24.947C27.75 25.269 27.6473 25.479 27.5309 25.576C27.4145 25.673 27.2238 25.737 26.9745 25.737H25.7159C25.4382 25.737 25.2475 25.689 25.1302 25.576C25.0128 25.463 24.9111 25.254 24.8524 24.931L22.5846 14.531L20.3314 24.915C20.2581 25.237 20.1701 25.447 20.0537 25.56C19.9363 25.673 19.7319 25.721 19.4679 25.721H18.2093ZM37.0138 26.156C36.253 26.156 35.4922 26.059 34.7607 25.866C34.0292 25.673 33.4581 25.463 33.0777 25.221C32.8439 25.076 32.6826 24.915 32.6239 24.77C32.5653 24.625 32.5359 24.464 32.5359 24.319V23.497C32.5359 23.158 32.6533 22.997 32.8723 22.997C32.9603 22.997 33.0483 23.013 33.1354 23.045C33.2234 23.077 33.3545 23.142 33.5012 23.206C33.9989 23.448 34.5398 23.641 35.1108 23.77C35.6966 23.899 36.2667 23.963 36.8525 23.963C37.7747 23.963 38.4915 23.786 38.9893 23.431C39.487 23.076 39.7501 22.56 39.7501 21.899C39.7501 21.448 39.6181 21.077 39.355 20.77C39.0919 20.464 38.5942 20.19 37.8773 19.932L35.7553 19.206C34.6873 18.835 33.8972 18.287 33.4141 17.561C32.931 16.852 32.6826 16.062 32.6826 15.223C32.6826 14.546 32.8146 13.949 33.0777 13.433C33.3407 12.917 33.6928 12.466 34.1309 12.111C34.57 11.74 35.0678 11.466 35.6526 11.273C36.2383 11.081 36.8525 11 37.4969 11C37.8187 11 38.1551 11.016 38.4778 11.064C38.8142 11.112 39.1213 11.177 39.4293 11.241C39.7217 11.322 40.0003 11.402 40.2634 11.499C40.5265 11.596 40.7318 11.692 40.8785 11.789C41.0838 11.918 41.2296 12.047 41.3176 12.192C41.4056 12.321 41.4496 12.498 41.4496 12.724V13.482C41.4496 13.821 41.3323 13.998 41.1132 13.998C40.9958 13.998 40.8061 13.934 40.5567 13.805C39.7226 13.386 38.7858 13.176 37.7472 13.176C36.913 13.176 36.2548 13.321 35.8011 13.627C35.3473 13.933 35.1136 14.401 35.1136 15.062C35.1136 15.513 35.2603 15.9 35.5527 16.207C35.8451 16.513 36.3868 16.82 37.1623 17.094L39.2404 17.82C40.2937 18.191 41.0554 18.707 41.5083 19.368C41.9611 20.029 42.1811 20.787 42.1811 21.625C42.1811 22.318 42.0491 22.947 41.8007 23.495C41.5376 24.043 41.1856 24.527 40.7328 24.914C40.279 25.317 39.7373 25.607 39.1084 25.817C38.4475 26.043 37.76 26.156 37.0138 26.156Z" fill="white"/>
<path d="M39.7793 33.9918C34.965 37.9098 27.9699 39.9898 21.9548 39.9898C13.526 39.9898 5.93051 36.5558 0.194007 30.8478C-0.259743 30.3968 0.150007 29.7838 0.691757 30.1388C6.89667 34.1048 14.5499 36.5078 22.4672 36.5078C27.8086 36.5078 33.6771 35.2828 39.0763 32.7668C39.882 32.3638 40.5695 33.3468 39.7793 33.9918ZM41.7841 31.4768C41.169 30.6058 37.7159 31.0578 36.1503 31.2668C35.6818 31.3308 35.6085 30.8798 36.0329 30.5408C38.7838 28.4128 43.3058 29.0248 43.8328 29.7348C44.3599 30.4608 43.6862 35.4428 41.1113 37.8288C40.7162 38.1998 40.3358 38.0058 40.5108 37.5228C41.0966 35.9268 42.3992 32.3308 41.7841 31.4768Z" fill="#FF9900"/>
</g>
<defs>
<clipPath id="clip0_1334_584">
<rect width="44" height="48" fill="white"/>
</clipPath>
</defs>
</svg>
