<svg width="70" height="70" viewBox="0 0 70 70" fill="none" xmlns="http://www.w3.org/2000/svg">
<circle cx="35" cy="35" r="35" fill="#2F3240"/>
<path d="M24 57C24 55.8954 24.8954 55 26 55H48C49.1046 55 50 55.8954 50 57V57C50 58.1046 49.1046 59 48 59H26C24.8954 59 24 58.1046 24 57V57Z" fill="#F85C5C" fill-opacity="0.6"/>
<path d="M18.4 31C18.4 28.1333 18.9333 25.6167 20 23.45C21.1 21.2833 22.5833 19.6167 24.45 18.45C26.3167 17.2833 28.4 16.7 30.7 16.7C32.6667 16.7 34.3833 17.1 35.85 17.9C37.35 18.7 38.5 19.75 39.3 21.05V17.1H47.85V45H39.3V41.05C38.4667 42.35 37.3 43.4 35.8 44.2C34.3333 45 32.6167 45.4 30.65 45.4C28.3833 45.4 26.3167 44.8167 24.45 43.65C22.5833 42.45 21.1 40.7667 20 38.6C18.9333 36.4 18.4 33.8667 18.4 31ZM39.3 31.05C39.3 28.9167 38.7 27.2333 37.5 26C36.3333 24.7667 34.9 24.15 33.2 24.15C31.5 24.15 30.05 24.7667 28.85 26C27.6833 27.2 27.1 28.8667 27.1 31C27.1 33.1333 27.6833 34.8333 28.85 36.1C30.05 37.3333 31.5 37.95 33.2 37.95C34.9 37.95 36.3333 37.3333 37.5 36.1C38.7 34.8667 39.3 33.1833 39.3 31.05Z" fill="#F85C5C"/>
</svg>
