<svg width="1512" height="5743" viewBox="0 0 1512 5743" fill="none" xmlns="http://www.w3.org/2000/svg">
<line x1="123.086" y1="5723.07" x2="123.086" y2="-16" stroke="#30373F" stroke-opacity="0.05" stroke-width="2"/>
<line x1="307.086" y1="5729.15" x2="307.086" y2="-9.92676" stroke="#30373F" stroke-opacity="0.05" stroke-width="2"/>
<line x1="491.086" y1="5740.15" x2="491.086" y2="-7" stroke="#30373F" stroke-opacity="0.05" stroke-width="2"/>
<line x1="675.086" y1="5753.15" x2="675.086" y2="-7" stroke="#30373F" stroke-opacity="0.05" stroke-width="2"/>
<line x1="859.086" y1="5753.15" x2="859.086" y2="1" stroke="#30373F" stroke-opacity="0.05" stroke-width="2"/>
<line x1="1043.09" y1="5753.15" x2="1043.09" y2="-7" stroke="#30373F" stroke-opacity="0.05" stroke-width="2"/>
<line x1="1227.09" y1="5751.15" x2="1227.09" stroke="#30373F" stroke-opacity="0.05" stroke-width="2"/>
<line x1="1411.09" y1="5757.15" x2="1411.09" y2="-6" stroke="#30373F" stroke-opacity="0.05" stroke-width="2"/>
<path d="M1412 1144H1415.5L1422 1156L1428.5 1144H1432L1422 1162L1412 1144ZM1416.5 1144H1419.5L1422 1148.58L1424.5 1144H1427.5L1422 1154.08L1416.5 1144Z" fill="#30373F" fill-opacity="0.2"/>
<path d="M115.73 2039.64L111.65 2030H119.81L115.73 2039.64ZM115.73 2049.95L107 2032.91H111.57L115.73 2042.47L119.89 2032.91H124.46L115.73 2049.95Z" fill="#30373F" fill-opacity="0.2"/>
<path d="M95.94 738L95.29 741.34H108.88L108.44 743.5H94.86L94.2 746.83H107.79L107.03 750.64L101.55 752.45L96.8 750.64L97.13 749H93.79L93 753L100.85 756L109.9 753L111.1 746.97L111.34 745.76L112.88 738H95.94Z" fill="#30373F" fill-opacity="0.2"/>
<path d="M728.93 1502.56L733 1501.43L733.55 1495.33H726.31L726.13 1493.3H733.73L733.93 1491.31H723.93L724.49 1497.32H731.38L731.15 1499.9L728.93 1500.5L726.71 1499.9L726.57 1498.24H724.57L724.86 1501.43L728.93 1502.56ZM721 1488H736.86L735.43 1504.2L728.93 1506L722.43 1504.2L721 1488Z" fill="#30373F" fill-opacity="0.2"/>
<path d="M1090 1044C1089.73 1044 1089.45 1044.07 1089.22 1044.2L1081.78 1048.5C1081.3 1048.78 1081 1049.3 1081 1049.86V1058.44C1081 1059 1081.3 1059.52 1081.78 1059.8L1083.73 1060.92C1084.68 1061.38 1085 1061.39 1085.44 1061.39C1086.84 1061.39 1087.65 1060.54 1087.65 1059.06V1050.59C1087.65 1050.47 1087.55 1050.37 1087.43 1050.37H1086.5C1086.37 1050.37 1086.27 1050.47 1086.27 1050.59V1059.06C1086.27 1059.72 1085.59 1060.37 1084.5 1059.82L1082.45 1058.65C1082.38 1058.6 1082.34 1058.52 1082.34 1058.44V1049.86C1082.34 1049.77 1082.38 1049.69 1082.45 1049.65L1089.89 1045.36C1089.95 1045.32 1090.05 1045.32 1090.11 1045.36L1097.55 1049.65C1097.62 1049.69 1097.66 1049.77 1097.66 1049.86V1058.44C1097.66 1058.52 1097.62 1058.6 1097.55 1058.65L1090.11 1062.94C1090.05 1062.98 1089.95 1062.98 1089.88 1062.94L1088 1061.8C1087.92 1061.77 1087.84 1061.76 1087.79 1061.79C1087.26 1062.09 1087.16 1062.15 1086.67 1062.3C1086.55 1062.34 1086.36 1062.41 1086.74 1062.62L1089.22 1064.09C1089.46 1064.23 1089.72 1064.3 1090 1064.3C1090.28 1064.3 1090.54 1064.23 1090.78 1064.09L1098.22 1059.8C1098.7 1059.52 1099 1059 1099 1058.44V1049.86C1099 1049.3 1098.7 1048.78 1098.22 1048.5L1090.78 1044.2C1090.55 1044.07 1090.28 1044 1090 1044ZM1092 1050.15C1089.88 1050.15 1088.61 1051.04 1088.61 1052.54C1088.61 1054.15 1089.87 1054.62 1091.91 1054.82C1094.34 1055.06 1094.53 1055.42 1094.53 1055.9C1094.53 1056.73 1093.86 1057.08 1092.3 1057.08C1090.32 1057.08 1089.9 1056.59 1089.75 1055.61C1089.73 1055.51 1089.64 1055.43 1089.53 1055.43H1088.57C1088.45 1055.43 1088.36 1055.52 1088.36 1055.65C1088.36 1056.89 1089.04 1058.39 1092.3 1058.39C1094.65 1058.39 1096 1057.46 1096 1055.84C1096 1054.23 1094.92 1053.81 1092.63 1053.5C1090.32 1053.2 1090.09 1053.04 1090.09 1052.5C1090.09 1052.05 1090.29 1051.45 1092 1051.45C1093.5 1051.45 1094.09 1051.78 1094.32 1052.81C1094.34 1052.91 1094.43 1052.98 1094.53 1052.98H1095.5C1095.55 1052.98 1095.61 1052.96 1095.65 1052.91C1095.69 1052.87 1095.72 1052.81 1095.7 1052.75C1095.56 1050.97 1094.38 1050.15 1092 1050.15Z" fill="#30373F" fill-opacity="0.2"/>
<path d="M129 233H131V235H129V240C129 240.53 128.789 241.039 128.414 241.414C128.039 241.789 127.53 242 127 242C127.53 242 128.039 242.211 128.414 242.586C128.789 242.961 129 243.47 129 244V249H131V251H129C127.93 250.73 127 250.1 127 249V245C127 244.47 126.789 243.961 126.414 243.586C126.039 243.211 125.53 243 125 243H124V241H125C125.53 241 126.039 240.789 126.414 240.414C126.789 240.039 127 239.53 127 239V235C127 234.47 127.211 233.961 127.586 233.586C127.961 233.211 128.47 233 129 233V233ZM143 233C143.53 233 144.039 233.211 144.414 233.586C144.789 233.961 145 234.47 145 235V239C145 239.53 145.211 240.039 145.586 240.414C145.961 240.789 146.47 241 147 241H148V243H147C146.47 243 145.961 243.211 145.586 243.586C145.211 243.961 145 244.47 145 245V249C145 249.53 144.789 250.039 144.414 250.414C144.039 250.789 143.53 251 143 251H141V249H143V244C143 243.47 143.211 242.961 143.586 242.586C143.961 242.211 144.47 242 145 242C144.47 242 143.961 241.789 143.586 241.414C143.211 241.039 143 240.53 143 240V235H141V233H143ZM136 245C136.265 245 136.52 245.105 136.707 245.293C136.895 245.48 137 245.735 137 246C137 246.265 136.895 246.52 136.707 246.707C136.52 246.895 136.265 247 136 247C135.735 247 135.48 246.895 135.293 246.707C135.105 246.52 135 246.265 135 246C135 245.735 135.105 245.48 135.293 245.293C135.48 245.105 135.735 245 136 245V245ZM132 245C132.265 245 132.52 245.105 132.707 245.293C132.895 245.48 133 245.735 133 246C133 246.265 132.895 246.52 132.707 246.707C132.52 246.895 132.265 247 132 247C131.735 247 131.48 246.895 131.293 246.707C131.105 246.52 131 246.265 131 246C131 245.735 131.105 245.48 131.293 245.293C131.48 245.105 131.735 245 132 245ZM140 245C140.265 245 140.52 245.105 140.707 245.293C140.895 245.48 141 245.735 141 246C141 246.265 140.895 246.52 140.707 246.707C140.52 246.895 140.265 247 140 247C139.735 247 139.48 246.895 139.293 246.707C139.105 246.52 139 246.265 139 246C139 245.735 139.105 245.48 139.293 245.293C139.48 245.105 139.735 245 140 245V245Z" fill="#30373F" fill-opacity="0.2"/>
<path d="M1439.35 227.03C1438.67 223.59 1435.64 221 1432 221C1429.11 221 1426.6 222.64 1425.35 225.03C1422.34 225.36 1420 227.9 1420 231C1420 232.591 1420.63 234.117 1421.76 235.243C1422.88 236.368 1424.41 237 1426 237H1439C1439.66 237 1440.31 236.871 1440.91 236.619C1441.52 236.368 1442.07 236 1442.54 235.536C1443 235.071 1443.37 234.52 1443.62 233.913C1443.87 233.307 1444 232.657 1444 232C1444 229.36 1441.95 227.22 1439.35 227.03Z" fill="#30373F" fill-opacity="0.2"/>
<path d="M355.14 581C355.899 581 356.626 581.301 357.162 581.838C357.699 582.374 358 583.101 358 583.86V587.64C358 588.399 357.699 589.126 357.162 589.662C356.626 590.199 355.899 590.5 355.14 590.5H348C348 590.89 348.32 591.46 348.71 591.46H353V593.14C353 593.899 352.699 594.626 352.162 595.162C351.626 595.699 350.899 596 350.14 596H345.86C345.101 596 344.374 595.699 343.838 595.162C343.301 594.626 343 593.899 343 593.14V589.39C343 587.81 344.28 586.54 345.86 586.54H351.11C352.69 586.54 353.96 585.26 353.96 583.68V581H355.14ZM350.86 592.79C350.46 592.79 350.14 593.09 350.14 593.68C350.14 594.27 350.46 594.39 350.86 594.39C350.953 594.39 351.046 594.372 351.132 594.336C351.218 594.3 351.296 594.248 351.362 594.182C351.428 594.116 351.48 594.038 351.516 593.952C351.552 593.866 351.57 593.773 351.57 593.68C351.57 593.09 351.25 592.79 350.86 592.79ZM340.86 591C339.28 591 338 589.72 338 588.14V584.36C338 582.78 339.28 581.5 340.86 581.5H348C348 581.11 347.68 580.54 347.29 580.54H343V578.86C343 577.28 344.28 576 345.86 576H350.14C351.72 576 353 577.28 353 578.86V582.61C353 584.19 351.72 585.46 350.14 585.46H344.89C343.31 585.46 342.04 586.74 342.04 588.32V591H340.86ZM345.14 579.21C345.54 579.21 345.86 578.91 345.86 578.32C345.86 577.73 345.54 577.61 345.14 577.61C344.75 577.61 344.43 577.73 344.43 578.32C344.43 578.91 344.75 579.21 345.14 579.21Z" fill="#30373F" fill-opacity="0.2"/>
<path d="M1258 1642C1259.31 1642 1260.61 1642.26 1261.83 1642.76C1263.04 1643.26 1264.14 1644 1265.07 1644.93C1266 1645.86 1266.74 1646.96 1267.24 1648.17C1267.74 1649.39 1268 1650.69 1268 1652C1268 1654.65 1266.95 1657.2 1265.07 1659.07C1263.2 1660.95 1260.65 1662 1258 1662C1256.69 1662 1255.39 1661.74 1254.17 1661.24C1252.96 1660.74 1251.86 1660 1250.93 1659.07C1249.05 1657.2 1248 1654.65 1248 1652C1248 1649.35 1249.05 1646.8 1250.93 1644.93C1252.8 1643.05 1255.35 1642 1258 1642V1642ZM1256 1655.33C1256.16 1655.87 1256.14 1656.37 1256 1656.83C1256 1656.88 1255.96 1656.93 1255.94 1657C1255.92 1657 1255.9 1657.07 1255.87 1657.12C1255.76 1657.36 1255.6 1657.59 1255.41 1657.79C1254.83 1658.43 1254 1658.67 1253.67 1658.47C1253.29 1658.25 1253.5 1657.35 1254.16 1656.64C1254.88 1655.88 1255.92 1655.38 1255.92 1655.38L1256 1655.33ZM1264.27 1646.28C1263.82 1644.5 1260.87 1643.92 1258.09 1644.91C1256.43 1645.5 1254.63 1646.42 1253.34 1647.63C1251.81 1649.07 1251.56 1650.32 1251.66 1650.84C1252 1652.68 1254.54 1653.89 1255.58 1654.78V1654.79C1255.28 1654.94 1253.04 1656.07 1252.5 1657.23C1251.96 1658.45 1252.6 1659.33 1253 1659.45C1254.34 1659.81 1255.69 1659.16 1256.41 1658.07C1257.11 1657.03 1257.06 1655.68 1256.75 1655C1257.17 1654.9 1257.66 1654.85 1258.28 1654.92C1260.04 1655.13 1260.38 1656.22 1260.31 1656.68C1260.25 1657.14 1259.88 1657.39 1259.76 1657.47C1259.64 1657.54 1259.6 1657.57 1259.61 1657.63C1259.62 1657.71 1259.68 1657.71 1259.78 1657.69C1259.93 1657.66 1260.71 1657.32 1260.74 1656.47C1260.78 1655.39 1259.75 1654.19 1257.93 1654.22C1257.18 1654.24 1256.71 1654.31 1256.37 1654.44L1256.29 1654.35C1255.16 1653.15 1253.08 1652.3 1253.17 1650.68C1253.2 1650.09 1253.4 1648.55 1257.17 1646.67C1260.25 1645.13 1262.72 1645.55 1263.15 1646.5C1263.76 1647.83 1261.83 1650.32 1258.63 1650.68C1257.41 1650.82 1256.76 1650.34 1256.6 1650.17C1256.43 1650 1256.41 1649.97 1256.35 1650C1256.24 1650.07 1256.31 1650.23 1256.35 1650.33C1256.44 1650.58 1256.84 1651 1257.5 1651.24C1258.09 1651.43 1259.53 1651.54 1261.26 1650.87C1263.2 1650.12 1264.72 1648.03 1264.27 1646.28Z" fill="#30373F" fill-opacity="0.2"/>
<path d="M1263.59 2.5825L1269.37 -3.2075L1271.06 -1.5075C1270.82 -0.6575 1271.21 0.2725 1271.99 0.7225V6.2625C1271.39 6.6025 1270.99 7.2525 1270.99 7.9925C1270.99 8.52293 1271.2 9.03164 1271.58 9.40671C1271.95 9.78179 1272.46 9.9925 1272.99 9.9925C1273.52 9.9925 1274.03 9.78179 1274.41 9.40671C1274.78 9.03164 1274.99 8.52293 1274.99 7.9925C1274.99 7.2525 1274.59 6.6025 1273.99 6.2625V1.4025L1276.06 3.4925C1275.99 3.6425 1275.99 3.8125 1275.99 3.9925C1275.99 4.52293 1276.2 5.03164 1276.58 5.40671C1276.95 5.78179 1277.46 5.9925 1277.99 5.9925C1278.52 5.9925 1279.03 5.78179 1279.41 5.40671C1279.78 5.03164 1279.99 4.52293 1279.99 3.9925C1279.99 3.46207 1279.78 2.95336 1279.41 2.57829C1279.03 2.20321 1278.52 1.9925 1277.99 1.9925C1277.81 1.9925 1277.64 1.9925 1277.49 2.0625L1274.92 -0.5075C1275.18 -1.4375 1274.7 -2.4575 1273.77 -2.8475C1273.34 -3.0075 1272.89 -3.0475 1272.49 -2.9375L1270.79 -4.6275L1271.58 -5.4075C1272.36 -6.1975 1273.62 -6.1975 1274.4 -5.4075L1282.39 2.5825C1283.18 3.3625 1283.18 4.6225 1282.39 5.4025L1274.4 13.3925C1273.62 14.1825 1272.36 14.1825 1271.58 13.3925L1263.59 5.4025C1262.8 4.6225 1262.8 3.3625 1263.59 2.5825Z" fill="#30373F" fill-opacity="0.2"/>
<path d="M347.161 1760.05C345.051 1761.82 341.891 1761.54 340.121 1759.43C338.341 1757.31 338.621 1754.14 340.731 1752.39L341.241 1752.01C339.551 1753.83 339.441 1756.67 341.081 1758.64C342.711 1760.58 345.531 1760.96 347.621 1759.61L347.161 1760.05ZM345.381 1764.14C342.211 1766.81 337.481 1766.4 334.821 1763.22C332.151 1760.05 332.571 1755.32 335.741 1752.64L336.661 1752C334.241 1754.73 334.121 1758.9 336.541 1761.78C338.961 1764.64 343.081 1765.27 346.191 1763.36L345.381 1764.14ZM344.251 1769.02C339.811 1772.75 333.181 1772.17 329.451 1767.72C325.731 1763.28 326.311 1756.64 330.751 1752.93L331.861 1752.14C328.351 1755.94 328.131 1761.87 331.561 1765.96C334.991 1770.04 340.871 1770.86 345.241 1768.07L344.251 1769.02Z" fill="#30373F" fill-opacity="0.2"/>
<circle cx="607" cy="2389" r="8" stroke="#30373F" stroke-opacity="0.2" stroke-width="4"/>
<circle cx="607" cy="1162" r="8" stroke="#30373F" stroke-opacity="0.2" stroke-width="4"/>
<circle cx="870" cy="87" r="8" stroke="#30373F" stroke-opacity="0.2" stroke-width="4"/>
<rect x="1316.5" y="2243.5" width="19" height="19" stroke="#30373F" stroke-opacity="0.2" stroke-width="3"/>
<path d="M116 452.5L121 445L126 452.5L131 445L136 452.5L141 445L146 452.5L151 445L156 452.5L161 445" stroke="#30373F" stroke-opacity="0.2" stroke-width="2.5"/>
<path d="M-4 22.5L1 15L6 22.5L11 15L16 22.5L21 15L26 22.5L31 15L36 22.5L41 15" stroke="#30373F" stroke-opacity="0.2" stroke-width="2.5"/>
<path d="M982 803.5L987 796L992 803.5L997 796L1002 803.5L1007 796L1012 803.5L1017 796L1022 803.5L1027 796" stroke="#30373F" stroke-opacity="0.2" stroke-width="2.5"/>
<path d="M1012 803.5L1017 796L1022 803.5L1027 796L1032 803.5L1037 796L1042 803.5L1047 796L1052 803.5L1057 796" stroke="#30373F" stroke-opacity="0.2" stroke-width="2.5"/>
<path d="M1042 803.5L1047 796L1052 803.5L1057 796L1062 803.5L1067 796L1072 803.5L1077 796L1082 803.5L1087 796" stroke="#30373F" stroke-opacity="0.2" stroke-width="2.5"/>
<path d="M654 287.5L659 280L664 287.5L669 280L674 287.5L679 280L684 287.5L689 280L694 287.5L699 280" stroke="#30373F" stroke-opacity="0.2" stroke-width="2.5"/>
<path d="M1004.8 1726.25L1003.5 1724L1002.2 1726.25L991.376 1745L990.077 1747.25H992.675H1014.33H1016.92L1015.62 1745L1004.8 1726.25Z" stroke="#30373F" stroke-opacity="0.2" stroke-width="3"/>
<path d="M169 1274C165.64 1274 164.54 1275.35 164.18 1276.24C165.25 1276.7 166 1277.76 166 1279C166 1279.8 165.684 1280.56 165.121 1281.12C164.559 1281.68 163.796 1282 163 1282C162.204 1282 161.441 1281.68 160.879 1281.12C160.316 1280.56 160 1279.8 160 1279C160 1277.69 160.83 1276.58 162 1276.17V1267.83C160.83 1267.42 160 1266.31 160 1265C160 1264.2 160.316 1263.44 160.879 1262.88C161.441 1262.32 162.204 1262 163 1262C163.796 1262 164.559 1262.32 165.121 1262.88C165.684 1263.44 166 1264.2 166 1265C166 1266.31 165.17 1267.42 164 1267.83V1273.12C164.88 1272.47 166.16 1272 168 1272C170.67 1272 171.56 1270.66 171.85 1269.77C170.77 1269.32 170 1268.25 170 1267C170 1266.2 170.316 1265.44 170.879 1264.88C171.441 1264.32 172.204 1264 173 1264C173.796 1264 174.559 1264.32 175.121 1264.88C175.684 1265.44 176 1266.2 176 1267C176 1268.34 175.12 1269.5 173.91 1269.86C173.65 1271.29 172.68 1274 169 1274ZM163 1278C162.735 1278 162.48 1278.11 162.293 1278.29C162.105 1278.48 162 1278.73 162 1279C162 1279.27 162.105 1279.52 162.293 1279.71C162.48 1279.89 162.735 1280 163 1280C163.265 1280 163.52 1279.89 163.707 1279.71C163.895 1279.52 164 1279.27 164 1279C164 1278.73 163.895 1278.48 163.707 1278.29C163.52 1278.11 163.265 1278 163 1278ZM163 1264C162.735 1264 162.48 1264.11 162.293 1264.29C162.105 1264.48 162 1264.73 162 1265C162 1265.27 162.105 1265.52 162.293 1265.71C162.48 1265.89 162.735 1266 163 1266C163.265 1266 163.52 1265.89 163.707 1265.71C163.895 1265.52 164 1265.27 164 1265C164 1264.73 163.895 1264.48 163.707 1264.29C163.52 1264.11 163.265 1264 163 1264V1264ZM173 1266C172.735 1266 172.48 1266.11 172.293 1266.29C172.105 1266.48 172 1266.73 172 1267C172 1267.27 172.105 1267.52 172.293 1267.71C172.48 1267.89 172.735 1268 173 1268C173.265 1268 173.52 1267.89 173.707 1267.71C173.895 1267.52 174 1267.27 174 1267C174 1266.73 173.895 1266.48 173.707 1266.29C173.52 1266.11 173.265 1266 173 1266Z" fill="#30373F" fill-opacity="0.2"/>
<path d="M1412 3781H1415.5L1422 3793L1428.5 3781H1432L1422 3799L1412 3781ZM1416.5 3781H1419.5L1422 3785.58L1424.5 3781H1427.5L1422 3791.08L1416.5 3781Z" fill="#30373F" fill-opacity="0.2"/>
<path d="M392.73 4636.64L388.65 4627H396.81L392.73 4636.64ZM392.73 4646.95L384 4629.91H388.57L392.73 4639.47L396.89 4629.91H401.46L392.73 4646.95Z" fill="#30373F" fill-opacity="0.2"/>
<path d="M35.94 3375L35.29 3378.34H48.88L48.44 3380.5H34.86L34.2 3383.83H47.79L47.03 3387.64L41.55 3389.45L36.8 3387.64L37.13 3386H33.79L33 3390L40.85 3393L49.9 3390L51.1 3383.97L51.34 3382.76L52.88 3375H35.94Z" fill="#30373F" fill-opacity="0.2"/>
<path d="M728.93 4139.56L733 4138.43L733.55 4132.33H726.31L726.13 4130.3H733.73L733.93 4128.31H723.93L724.49 4134.32H731.38L731.15 4136.9L728.93 4137.5L726.71 4136.9L726.57 4135.24H724.57L724.86 4138.43L728.93 4139.56ZM721 4125H736.86L735.43 4141.2L728.93 4143L722.43 4141.2L721 4125Z" fill="#30373F" fill-opacity="0.2"/>
<path d="M1090 3681C1089.73 3681 1089.45 3681.07 1089.22 3681.2L1081.78 3685.5C1081.3 3685.78 1081 3686.3 1081 3686.86V3695.44C1081 3696 1081.3 3696.52 1081.78 3696.8L1083.73 3697.92C1084.68 3698.38 1085 3698.39 1085.44 3698.39C1086.84 3698.39 1087.65 3697.54 1087.65 3696.06V3687.59C1087.65 3687.47 1087.55 3687.37 1087.43 3687.37H1086.5C1086.37 3687.37 1086.27 3687.47 1086.27 3687.59V3696.06C1086.27 3696.72 1085.59 3697.37 1084.5 3696.82L1082.45 3695.65C1082.38 3695.6 1082.34 3695.52 1082.34 3695.44V3686.86C1082.34 3686.77 1082.38 3686.69 1082.45 3686.65L1089.89 3682.36C1089.95 3682.32 1090.05 3682.32 1090.11 3682.36L1097.55 3686.65C1097.62 3686.69 1097.66 3686.77 1097.66 3686.86V3695.44C1097.66 3695.52 1097.62 3695.6 1097.55 3695.65L1090.11 3699.94C1090.05 3699.98 1089.95 3699.98 1089.88 3699.94L1088 3698.8C1087.92 3698.77 1087.84 3698.76 1087.79 3698.79C1087.26 3699.09 1087.16 3699.15 1086.67 3699.3C1086.55 3699.34 1086.36 3699.41 1086.74 3699.62L1089.22 3701.09C1089.46 3701.23 1089.72 3701.3 1090 3701.3C1090.28 3701.3 1090.54 3701.23 1090.78 3701.09L1098.22 3696.8C1098.7 3696.52 1099 3696 1099 3695.44V3686.86C1099 3686.3 1098.7 3685.78 1098.22 3685.5L1090.78 3681.2C1090.55 3681.07 1090.28 3681 1090 3681ZM1092 3687.15C1089.88 3687.15 1088.61 3688.04 1088.61 3689.54C1088.61 3691.15 1089.87 3691.62 1091.91 3691.82C1094.34 3692.06 1094.53 3692.42 1094.53 3692.9C1094.53 3693.73 1093.86 3694.08 1092.3 3694.08C1090.32 3694.08 1089.9 3693.59 1089.75 3692.61C1089.73 3692.51 1089.64 3692.43 1089.53 3692.43H1088.57C1088.45 3692.43 1088.36 3692.52 1088.36 3692.65C1088.36 3693.89 1089.04 3695.39 1092.3 3695.39C1094.65 3695.39 1096 3694.46 1096 3692.84C1096 3691.23 1094.92 3690.81 1092.63 3690.5C1090.32 3690.2 1090.09 3690.04 1090.09 3689.5C1090.09 3689.05 1090.29 3688.45 1092 3688.45C1093.5 3688.45 1094.09 3688.78 1094.32 3689.81C1094.34 3689.91 1094.43 3689.98 1094.53 3689.98H1095.5C1095.55 3689.98 1095.61 3689.96 1095.65 3689.91C1095.69 3689.87 1095.72 3689.81 1095.7 3689.75C1095.56 3687.97 1094.38 3687.15 1092 3687.15Z" fill="#30373F" fill-opacity="0.2"/>
<path d="M129 2870H131V2872H129V2877C129 2877.53 128.789 2878.04 128.414 2878.41C128.039 2878.79 127.53 2879 127 2879C127.53 2879 128.039 2879.21 128.414 2879.59C128.789 2879.96 129 2880.47 129 2881V2886H131V2888H129C127.93 2887.73 127 2887.1 127 2886V2882C127 2881.47 126.789 2880.96 126.414 2880.59C126.039 2880.21 125.53 2880 125 2880H124V2878H125C125.53 2878 126.039 2877.79 126.414 2877.41C126.789 2877.04 127 2876.53 127 2876V2872C127 2871.47 127.211 2870.96 127.586 2870.59C127.961 2870.21 128.47 2870 129 2870V2870ZM143 2870C143.53 2870 144.039 2870.21 144.414 2870.59C144.789 2870.96 145 2871.47 145 2872V2876C145 2876.53 145.211 2877.04 145.586 2877.41C145.961 2877.79 146.47 2878 147 2878H148V2880H147C146.47 2880 145.961 2880.21 145.586 2880.59C145.211 2880.96 145 2881.47 145 2882V2886C145 2886.53 144.789 2887.04 144.414 2887.41C144.039 2887.79 143.53 2888 143 2888H141V2886H143V2881C143 2880.47 143.211 2879.96 143.586 2879.59C143.961 2879.21 144.47 2879 145 2879C144.47 2879 143.961 2878.79 143.586 2878.41C143.211 2878.04 143 2877.53 143 2877V2872H141V2870H143ZM136 2882C136.265 2882 136.52 2882.11 136.707 2882.29C136.895 2882.48 137 2882.73 137 2883C137 2883.27 136.895 2883.52 136.707 2883.71C136.52 2883.89 136.265 2884 136 2884C135.735 2884 135.48 2883.89 135.293 2883.71C135.105 2883.52 135 2883.27 135 2883C135 2882.73 135.105 2882.48 135.293 2882.29C135.48 2882.11 135.735 2882 136 2882V2882ZM132 2882C132.265 2882 132.52 2882.11 132.707 2882.29C132.895 2882.48 133 2882.73 133 2883C133 2883.27 132.895 2883.52 132.707 2883.71C132.52 2883.89 132.265 2884 132 2884C131.735 2884 131.48 2883.89 131.293 2883.71C131.105 2883.52 131 2883.27 131 2883C131 2882.73 131.105 2882.48 131.293 2882.29C131.48 2882.11 131.735 2882 132 2882ZM140 2882C140.265 2882 140.52 2882.11 140.707 2882.29C140.895 2882.48 141 2882.73 141 2883C141 2883.27 140.895 2883.52 140.707 2883.71C140.52 2883.89 140.265 2884 140 2884C139.735 2884 139.48 2883.89 139.293 2883.71C139.105 2883.52 139 2883.27 139 2883C139 2882.73 139.105 2882.48 139.293 2882.29C139.48 2882.11 139.735 2882 140 2882V2882Z" fill="#30373F" fill-opacity="0.2"/>
<path d="M1516.35 2863.16C1515.67 2859.08 1512.64 2856 1509 2856C1506.11 2856 1503.6 2857.95 1502.35 2860.79C1499.34 2861.18 1497 2864.19 1497 2867.88C1497 2869.76 1497.63 2871.58 1498.76 2872.91C1499.88 2874.25 1501.41 2875 1503 2875H1516C1516.66 2875 1517.31 2874.85 1517.91 2874.55C1518.52 2874.25 1519.07 2873.81 1519.54 2873.26C1520 2872.71 1520.37 2872.06 1520.62 2871.33C1520.87 2870.61 1521 2869.84 1521 2869.06C1521 2865.93 1518.95 2863.39 1516.35 2863.16Z" fill="#30373F" fill-opacity="0.2"/>
<path d="M355.14 3218C355.899 3218 356.626 3218.3 357.162 3218.84C357.699 3219.37 358 3220.1 358 3220.86V3224.64C358 3225.4 357.699 3226.13 357.162 3226.66C356.626 3227.2 355.899 3227.5 355.14 3227.5H348C348 3227.89 348.32 3228.46 348.71 3228.46H353V3230.14C353 3230.9 352.699 3231.63 352.162 3232.16C351.626 3232.7 350.899 3233 350.14 3233H345.86C345.101 3233 344.374 3232.7 343.838 3232.16C343.301 3231.63 343 3230.9 343 3230.14V3226.39C343 3224.81 344.28 3223.54 345.86 3223.54H351.11C352.69 3223.54 353.96 3222.26 353.96 3220.68V3218H355.14ZM350.86 3229.79C350.46 3229.79 350.14 3230.09 350.14 3230.68C350.14 3231.27 350.46 3231.39 350.86 3231.39C350.953 3231.39 351.046 3231.37 351.132 3231.34C351.218 3231.3 351.296 3231.25 351.362 3231.18C351.428 3231.12 351.48 3231.04 351.516 3230.95C351.552 3230.87 351.57 3230.77 351.57 3230.68C351.57 3230.09 351.25 3229.79 350.86 3229.79ZM340.86 3228C339.28 3228 338 3226.72 338 3225.14V3221.36C338 3219.78 339.28 3218.5 340.86 3218.5H348C348 3218.11 347.68 3217.54 347.29 3217.54H343V3215.86C343 3214.28 344.28 3213 345.86 3213H350.14C351.72 3213 353 3214.28 353 3215.86V3219.61C353 3221.19 351.72 3222.46 350.14 3222.46H344.89C343.31 3222.46 342.04 3223.74 342.04 3225.32V3228H340.86ZM345.14 3216.21C345.54 3216.21 345.86 3215.91 345.86 3215.32C345.86 3214.73 345.54 3214.61 345.14 3214.61C344.75 3214.61 344.43 3214.73 344.43 3215.32C344.43 3215.91 344.75 3216.21 345.14 3216.21Z" fill="#30373F" fill-opacity="0.2"/>
<path d="M1258 4279C1259.31 4279 1260.61 4279.26 1261.83 4279.76C1263.04 4280.26 1264.14 4281 1265.07 4281.93C1266 4282.86 1266.74 4283.96 1267.24 4285.17C1267.74 4286.39 1268 4287.69 1268 4289C1268 4291.65 1266.95 4294.2 1265.07 4296.07C1263.2 4297.95 1260.65 4299 1258 4299C1256.69 4299 1255.39 4298.74 1254.17 4298.24C1252.96 4297.74 1251.86 4297 1250.93 4296.07C1249.05 4294.2 1248 4291.65 1248 4289C1248 4286.35 1249.05 4283.8 1250.93 4281.93C1252.8 4280.05 1255.35 4279 1258 4279V4279ZM1256 4292.33C1256.16 4292.87 1256.14 4293.37 1256 4293.83C1256 4293.88 1255.96 4293.93 1255.94 4294C1255.92 4294 1255.9 4294.07 1255.87 4294.12C1255.76 4294.36 1255.6 4294.59 1255.41 4294.79C1254.83 4295.43 1254 4295.67 1253.67 4295.47C1253.29 4295.25 1253.5 4294.35 1254.16 4293.64C1254.88 4292.88 1255.92 4292.38 1255.92 4292.38L1256 4292.33ZM1264.27 4283.28C1263.82 4281.5 1260.87 4280.92 1258.09 4281.91C1256.43 4282.5 1254.63 4283.42 1253.34 4284.63C1251.81 4286.07 1251.56 4287.32 1251.66 4287.84C1252 4289.68 1254.54 4290.89 1255.58 4291.78V4291.79C1255.28 4291.94 1253.04 4293.07 1252.5 4294.23C1251.96 4295.45 1252.6 4296.33 1253 4296.45C1254.34 4296.81 1255.69 4296.16 1256.41 4295.07C1257.11 4294.03 1257.06 4292.68 1256.75 4292C1257.17 4291.9 1257.66 4291.85 1258.28 4291.92C1260.04 4292.13 1260.38 4293.22 1260.31 4293.68C1260.25 4294.14 1259.88 4294.39 1259.76 4294.47C1259.64 4294.54 1259.6 4294.57 1259.61 4294.63C1259.62 4294.71 1259.68 4294.71 1259.78 4294.69C1259.93 4294.66 1260.71 4294.32 1260.74 4293.47C1260.78 4292.39 1259.75 4291.19 1257.93 4291.22C1257.18 4291.24 1256.71 4291.31 1256.37 4291.44L1256.29 4291.35C1255.16 4290.15 1253.08 4289.3 1253.17 4287.68C1253.2 4287.09 1253.4 4285.55 1257.17 4283.67C1260.25 4282.13 1262.72 4282.55 1263.15 4283.5C1263.76 4284.83 1261.83 4287.32 1258.63 4287.68C1257.41 4287.82 1256.76 4287.34 1256.6 4287.17C1256.43 4287 1256.41 4286.97 1256.35 4287C1256.24 4287.07 1256.31 4287.23 1256.35 4287.33C1256.44 4287.58 1256.84 4288 1257.5 4288.24C1258.09 4288.43 1259.53 4288.54 1261.26 4287.87C1263.2 4287.12 1264.72 4285.03 1264.27 4283.28Z" fill="#30373F" fill-opacity="0.2"/>
<path d="M1263.59 2639.58L1269.37 2633.79L1271.06 2635.49C1270.82 2636.34 1271.21 2637.27 1271.99 2637.72V2643.26C1271.39 2643.6 1270.99 2644.25 1270.99 2644.99C1270.99 2645.52 1271.2 2646.03 1271.58 2646.41C1271.95 2646.78 1272.46 2646.99 1272.99 2646.99C1273.52 2646.99 1274.03 2646.78 1274.41 2646.41C1274.78 2646.03 1274.99 2645.52 1274.99 2644.99C1274.99 2644.25 1274.59 2643.6 1273.99 2643.26V2638.4L1276.06 2640.49C1275.99 2640.64 1275.99 2640.81 1275.99 2640.99C1275.99 2641.52 1276.2 2642.03 1276.58 2642.41C1276.95 2642.78 1277.46 2642.99 1277.99 2642.99C1278.52 2642.99 1279.03 2642.78 1279.41 2642.41C1279.78 2642.03 1279.99 2641.52 1279.99 2640.99C1279.99 2640.46 1279.78 2639.95 1279.41 2639.58C1279.03 2639.2 1278.52 2638.99 1277.99 2638.99C1277.81 2638.99 1277.64 2638.99 1277.49 2639.06L1274.92 2636.49C1275.18 2635.56 1274.7 2634.54 1273.77 2634.15C1273.34 2633.99 1272.89 2633.95 1272.49 2634.06L1270.79 2632.37L1271.58 2631.59C1272.36 2630.8 1273.62 2630.8 1274.4 2631.59L1282.39 2639.58C1283.18 2640.36 1283.18 2641.62 1282.39 2642.4L1274.4 2650.39C1273.62 2651.18 1272.36 2651.18 1271.58 2650.39L1263.59 2642.4C1262.8 2641.62 1262.8 2640.36 1263.59 2639.58Z" fill="#30373F" fill-opacity="0.2"/>
<path d="M347.161 4397.05C345.051 4398.82 341.891 4398.54 340.121 4396.43C338.341 4394.31 338.621 4391.14 340.731 4389.39L341.241 4389.01C339.551 4390.83 339.441 4393.67 341.081 4395.64C342.711 4397.58 345.531 4397.96 347.621 4396.61L347.161 4397.05ZM345.381 4401.14C342.211 4403.81 337.481 4403.4 334.821 4400.22C332.151 4397.05 332.571 4392.32 335.741 4389.64L336.661 4389C334.241 4391.73 334.121 4395.9 336.541 4398.78C338.961 4401.64 343.081 4402.27 346.191 4400.36L345.381 4401.14ZM344.251 4406.02C339.811 4409.75 333.181 4409.17 329.451 4404.72C325.731 4400.28 326.311 4393.64 330.751 4389.93L331.861 4389.14C328.351 4392.94 328.131 4398.87 331.561 4402.96C334.991 4407.04 340.871 4407.86 345.241 4405.07L344.251 4406.02Z" fill="#30373F" fill-opacity="0.2"/>
<circle cx="607" cy="5026" r="8" stroke="#30373F" stroke-opacity="0.2" stroke-width="4"/>
<circle cx="607" cy="3799" r="8" stroke="#30373F" stroke-opacity="0.2" stroke-width="4"/>
<circle cx="870" cy="2724" r="8" stroke="#30373F" stroke-opacity="0.2" stroke-width="4"/>
<rect x="1316.5" y="4880.5" width="19" height="19" stroke="#30373F" stroke-opacity="0.2" stroke-width="3"/>
<path d="M116 3089.5L121 3082L126 3089.5L131 3082L136 3089.5L141 3082L146 3089.5L151 3082L156 3089.5L161 3082" stroke="#30373F" stroke-opacity="0.2" stroke-width="2.5"/>
<path d="M982 3440.5L987 3433L992 3440.5L997 3433L1002 3440.5L1007 3433L1012 3440.5L1017 3433L1022 3440.5L1027 3433" stroke="#30373F" stroke-opacity="0.2" stroke-width="2.5"/>
<path d="M654 2924.5L659 2917L664 2924.5L669 2917L674 2924.5L679 2917L684 2924.5L689 2917L694 2924.5L699 2917" stroke="#30373F" stroke-opacity="0.2" stroke-width="2.5"/>
<path d="M1004.8 4363.25L1003.5 4361L1002.2 4363.25L991.376 4382L990.077 4384.25H992.675H1014.33H1016.92L1015.62 4382L1004.8 4363.25Z" stroke="#30373F" stroke-opacity="0.2" stroke-width="3"/>
<path d="M169 3911C165.64 3911 164.54 3912.35 164.18 3913.24C165.25 3913.7 166 3914.76 166 3916C166 3916.8 165.684 3917.56 165.121 3918.12C164.559 3918.68 163.796 3919 163 3919C162.204 3919 161.441 3918.68 160.879 3918.12C160.316 3917.56 160 3916.8 160 3916C160 3914.69 160.83 3913.58 162 3913.17V3904.83C160.83 3904.42 160 3903.31 160 3902C160 3901.2 160.316 3900.44 160.879 3899.88C161.441 3899.32 162.204 3899 163 3899C163.796 3899 164.559 3899.32 165.121 3899.88C165.684 3900.44 166 3901.2 166 3902C166 3903.31 165.17 3904.42 164 3904.83V3910.12C164.88 3909.47 166.16 3909 168 3909C170.67 3909 171.56 3907.66 171.85 3906.77C170.77 3906.32 170 3905.25 170 3904C170 3903.2 170.316 3902.44 170.879 3901.88C171.441 3901.32 172.204 3901 173 3901C173.796 3901 174.559 3901.32 175.121 3901.88C175.684 3902.44 176 3903.2 176 3904C176 3905.34 175.12 3906.5 173.91 3906.86C173.65 3908.29 172.68 3911 169 3911ZM163 3915C162.735 3915 162.48 3915.11 162.293 3915.29C162.105 3915.48 162 3915.73 162 3916C162 3916.27 162.105 3916.52 162.293 3916.71C162.48 3916.89 162.735 3917 163 3917C163.265 3917 163.52 3916.89 163.707 3916.71C163.895 3916.52 164 3916.27 164 3916C164 3915.73 163.895 3915.48 163.707 3915.29C163.52 3915.11 163.265 3915 163 3915ZM163 3901C162.735 3901 162.48 3901.11 162.293 3901.29C162.105 3901.48 162 3901.73 162 3902C162 3902.27 162.105 3902.52 162.293 3902.71C162.48 3902.89 162.735 3903 163 3903C163.265 3903 163.52 3902.89 163.707 3902.71C163.895 3902.52 164 3902.27 164 3902C164 3901.73 163.895 3901.48 163.707 3901.29C163.52 3901.11 163.265 3901 163 3901V3901ZM173 3903C172.735 3903 172.48 3903.11 172.293 3903.29C172.105 3903.48 172 3903.73 172 3904C172 3904.27 172.105 3904.52 172.293 3904.71C172.48 3904.89 172.735 3905 173 3905C173.265 3905 173.52 3904.89 173.707 3904.71C173.895 3904.52 174 3904.27 174 3904C174 3903.73 173.895 3903.48 173.707 3903.29C173.52 3903.11 173.265 3903 173 3903Z" fill="#30373F" fill-opacity="0.2"/>
</svg>
