<svg width="360" height="5743" viewBox="0 0 360 5743" fill="none" xmlns="http://www.w3.org/2000/svg">
<line x1="30.6818" y1="5788.88" x2="30.6818" y2="-153" stroke="#30373F" stroke-opacity="0.15"/>
<line x1="78.8636" y1="5788.88" x2="78.8636" y2="-152.998" stroke="#30373F" stroke-opacity="0.15"/>
<line x1="127.045" y1="5788.88" x2="127.045" y2="-152.998" stroke="#30373F" stroke-opacity="0.15"/>
<line x1="175.227" y1="5788.88" x2="175.227" y2="-152.998" stroke="#30373F" stroke-opacity="0.15"/>
<line x1="223.409" y1="5788.88" x2="223.409" y2="-152.998" stroke="#30373F" stroke-opacity="0.15"/>
<line x1="319.773" y1="5790.92" x2="319.773" y2="-150.957" stroke="#30373F" stroke-opacity="0.15"/>
<line x1="271.591" y1="5790.92" x2="271.591" y2="-150.957" stroke="#30373F" stroke-opacity="0.15"/>
<path d="M332.629 4657.06H333.679L335.629 4661.06L337.579 4657.06H338.629L335.629 4663.06L332.629 4657.06ZM333.979 4657.06H334.879L335.629 4658.59L336.379 4657.06H337.279L335.629 4660.42L333.979 4657.06Z" fill="#30373F" fill-opacity="0.3"/>
<path d="M86.4194 5262.76L85.251 5260.34H87.5878L86.4194 5262.76ZM86.4194 5265.34L83.9194 5261.07H85.2281L86.4194 5263.47L87.6107 5261.07H88.9194L86.4194 5265.34Z" fill="#30373F" fill-opacity="0.3"/>
<path d="M-0.260563 4367.54L-0.424044 4368.47H2.99396L2.8833 4369.07H-0.532193L-0.698189 4370H2.71982L2.52867 4371.06L1.1504 4371.56L-0.0442656 4371.06L0.0387324 4370.6H-0.801308L-1 4371.71L0.974346 4372.54L3.2505 4371.71L3.55231 4370.04L3.61268 4369.7L4 4367.54H-0.260563Z" fill="#30373F" fill-opacity="0.3"/>
<path d="M169.452 4908.84L171.505 4908.34L171.782 4905.63H168.13L168.039 4904.72H171.873L171.974 4903.84H166.93L167.212 4906.51H170.687L170.571 4907.66L169.452 4907.92L168.332 4907.66L168.261 4906.92H167.252L167.399 4908.34L169.452 4908.84ZM165.452 4902.37H173.452L172.73 4909.57L169.452 4910.37L166.173 4909.57L165.452 4902.37Z" fill="#30373F" fill-opacity="0.3"/>
<path d="M256.048 4585.75C255.943 4585.75 255.834 4585.78 255.745 4585.82L252.852 4587.3C252.665 4587.4 252.548 4587.58 252.548 4587.77V4590.73C252.548 4590.93 252.665 4591.1 252.852 4591.2L253.61 4591.59C253.979 4591.75 254.104 4591.75 254.275 4591.75C254.819 4591.75 255.134 4591.46 255.134 4590.95V4588.03C255.134 4587.98 255.096 4587.95 255.049 4587.95H254.687C254.637 4587.95 254.598 4587.98 254.598 4588.03V4590.95C254.598 4591.17 254.333 4591.4 253.909 4591.21L253.112 4590.8C253.085 4590.79 253.069 4590.76 253.069 4590.73V4587.77C253.069 4587.74 253.085 4587.71 253.112 4587.7L256.006 4586.22C256.029 4586.21 256.068 4586.21 256.091 4586.22L258.984 4587.7C259.012 4587.71 259.027 4587.74 259.027 4587.77V4590.73C259.027 4590.76 259.012 4590.79 258.984 4590.8L256.091 4592.28C256.068 4592.3 256.029 4592.3 256.002 4592.28L255.271 4591.89C255.239 4591.88 255.208 4591.88 255.189 4591.89C254.983 4591.99 254.944 4592.01 254.753 4592.06C254.707 4592.08 254.633 4592.1 254.781 4592.17L255.745 4592.68C255.838 4592.73 255.939 4592.75 256.048 4592.75C256.157 4592.75 256.258 4592.73 256.352 4592.68L259.245 4591.2C259.432 4591.1 259.548 4590.93 259.548 4590.73V4587.77C259.548 4587.58 259.432 4587.4 259.245 4587.3L256.352 4585.82C256.262 4585.78 256.157 4585.75 256.048 4585.75ZM256.826 4587.87C256.002 4587.87 255.508 4588.18 255.508 4588.7C255.508 4589.25 255.998 4589.41 256.791 4589.48C257.736 4589.57 257.81 4589.69 257.81 4589.86C257.81 4590.14 257.549 4590.26 256.943 4590.26C256.173 4590.26 256.009 4590.09 255.951 4589.76C255.943 4589.72 255.908 4589.69 255.866 4589.69H255.492C255.446 4589.69 255.411 4589.73 255.411 4589.77C255.411 4590.2 255.675 4590.71 256.943 4590.71C257.857 4590.71 258.382 4590.39 258.382 4589.84C258.382 4589.28 257.962 4589.14 257.071 4589.03C256.173 4588.93 256.083 4588.87 256.083 4588.68C256.083 4588.53 256.161 4588.32 256.826 4588.32C257.409 4588.32 257.639 4588.44 257.728 4588.79C257.736 4588.83 257.771 4588.85 257.81 4588.85H258.187C258.207 4588.85 258.23 4588.84 258.246 4588.83C258.261 4588.81 258.273 4588.79 258.265 4588.77C258.211 4588.16 257.752 4587.87 256.826 4587.87Z" fill="#30373F" fill-opacity="0.3"/>
<path d="M22.2661 4007.43H22.7661V4008.43H22.2661V4010.93C22.2661 4011.19 22.2134 4011.45 22.1197 4011.64C22.0259 4011.82 21.8987 4011.93 21.7661 4011.93C21.8987 4011.93 22.0259 4012.04 22.1197 4012.22C22.2134 4012.41 22.2661 4012.66 22.2661 4012.93V4015.43H22.7661V4016.43H22.2661C21.9986 4016.29 21.7661 4015.98 21.7661 4015.43V4013.43C21.7661 4013.16 21.7134 4012.91 21.6197 4012.72C21.5259 4012.54 21.3987 4012.43 21.2661 4012.43H21.0161V4011.43H21.2661C21.3987 4011.43 21.5259 4011.32 21.6197 4011.14C21.7134 4010.95 21.7661 4010.69 21.7661 4010.43V4008.43C21.7661 4008.16 21.8188 4007.91 21.9126 4007.72C22.0063 4007.54 22.1335 4007.43 22.2661 4007.43V4007.43ZM25.7661 4007.43C25.8987 4007.43 26.0259 4007.54 26.1197 4007.72C26.2134 4007.91 26.2661 4008.16 26.2661 4008.43V4010.43C26.2661 4010.69 26.3188 4010.95 26.4126 4011.14C26.5063 4011.32 26.6335 4011.43 26.7661 4011.43H27.0161V4012.43H26.7661C26.6335 4012.43 26.5063 4012.54 26.4126 4012.72C26.3188 4012.91 26.2661 4013.16 26.2661 4013.43V4015.43C26.2661 4015.69 26.2134 4015.95 26.1197 4016.14C26.0259 4016.32 25.8987 4016.43 25.7661 4016.43H25.2661V4015.43H25.7661V4012.93C25.7661 4012.66 25.8188 4012.41 25.9126 4012.22C26.0063 4012.04 26.1335 4011.93 26.2661 4011.93C26.1335 4011.93 26.0063 4011.82 25.9126 4011.64C25.8188 4011.45 25.7661 4011.19 25.7661 4010.93V4008.43H25.2661V4007.43H25.7661ZM24.0161 4013.43C24.0824 4013.43 24.146 4013.48 24.1929 4013.58C24.2398 4013.67 24.2661 4013.8 24.2661 4013.93C24.2661 4014.06 24.2398 4014.19 24.1929 4014.28C24.146 4014.38 24.0824 4014.43 24.0161 4014.43C23.9498 4014.43 23.8862 4014.38 23.8393 4014.28C23.7925 4014.19 23.7661 4014.06 23.7661 4013.93C23.7661 4013.8 23.7925 4013.67 23.8393 4013.58C23.8862 4013.48 23.9498 4013.43 24.0161 4013.43V4013.43ZM23.0161 4013.43C23.0824 4013.43 23.146 4013.48 23.1929 4013.58C23.2398 4013.67 23.2661 4013.8 23.2661 4013.93C23.2661 4014.06 23.2398 4014.19 23.1929 4014.28C23.146 4014.38 23.0824 4014.43 23.0161 4014.43C22.9498 4014.43 22.8862 4014.38 22.8393 4014.28C22.7925 4014.19 22.7661 4014.06 22.7661 4013.93C22.7661 4013.8 22.7925 4013.67 22.8393 4013.58C22.8862 4013.48 22.9498 4013.43 23.0161 4013.43ZM25.0161 4013.43C25.0824 4013.43 25.146 4013.48 25.1929 4013.58C25.2398 4013.67 25.2661 4013.8 25.2661 4013.93C25.2661 4014.06 25.2398 4014.19 25.1929 4014.28C25.146 4014.38 25.0824 4014.43 25.0161 4014.43C24.9498 4014.43 24.8862 4014.38 24.8393 4014.28C24.7925 4014.19 24.7661 4014.06 24.7661 4013.93C24.7661 4013.8 24.7925 4013.67 24.8393 4013.58C24.8862 4013.48 24.9498 4013.43 25.0161 4013.43V4013.43Z" fill="#30373F" fill-opacity="0.3"/>
<path d="M359.644 3999.71C359.417 3998.42 358.407 3997.45 357.194 3997.45C356.23 3997.45 355.394 3998.06 354.977 3998.96C353.974 3999.08 353.194 4000.03 353.194 4001.2C353.194 4001.79 353.404 4002.37 353.779 4002.79C354.154 4003.21 354.663 4003.45 355.194 4003.45H359.527C359.746 4003.45 359.963 4003.4 360.165 4003.3C360.367 4003.21 360.551 4003.07 360.705 4002.9C360.86 4002.72 360.983 4002.52 361.067 4002.29C361.15 4002.06 361.194 4001.82 361.194 4001.57C361.194 4000.58 360.51 3999.78 359.644 3999.71Z" fill="#30373F" fill-opacity="0.3"/>
<path d="M80.5033 4254.27C80.8446 4254.27 81.172 4254.41 81.4133 4254.65C81.6547 4254.89 81.7903 4255.22 81.7903 4255.56V4257.26C81.7903 4257.6 81.6547 4257.93 81.4133 4258.17C81.172 4258.41 80.8446 4258.55 80.5033 4258.55H77.2903C77.2903 4258.72 77.4343 4258.98 77.6098 4258.98H79.5403V4259.74C79.5403 4260.08 79.4047 4260.41 79.1633 4260.65C78.922 4260.89 78.5946 4261.02 78.2533 4261.02H76.3273C75.9859 4261.02 75.6586 4260.89 75.4172 4260.65C75.1759 4260.41 75.0403 4260.08 75.0403 4259.74V4258.05C75.0403 4257.34 75.6163 4256.77 76.3273 4256.77H78.6898C79.4008 4256.77 79.9723 4256.19 79.9723 4255.48V4254.27H80.5033ZM78.5773 4259.58C78.3973 4259.58 78.2533 4259.71 78.2533 4259.98C78.2533 4260.24 78.3973 4260.3 78.5773 4260.3C78.6192 4260.3 78.6608 4260.29 78.6996 4260.27C78.7383 4260.26 78.7735 4260.24 78.8032 4260.21C78.8329 4260.18 78.8564 4260.14 78.8725 4260.1C78.8885 4260.06 78.8968 4260.02 78.8968 4259.98C78.8968 4259.71 78.7528 4259.58 78.5773 4259.58ZM74.0773 4258.77C73.3663 4258.77 72.7903 4258.2 72.7903 4257.49V4255.79C72.7903 4255.07 73.3663 4254.5 74.0773 4254.5H77.2903C77.2903 4254.32 77.1463 4254.07 76.9708 4254.07H75.0403V4253.31C75.0403 4252.6 75.6163 4252.02 76.3273 4252.02H78.2533C78.9643 4252.02 79.5403 4252.6 79.5403 4253.31V4255C79.5403 4255.71 78.9643 4256.28 78.2533 4256.28H75.8908C75.1798 4256.28 74.6083 4256.86 74.6083 4257.57V4258.77H74.0773ZM76.0033 4253.47C76.1833 4253.47 76.3273 4253.33 76.3273 4253.07C76.3273 4252.8 76.1833 4252.75 76.0033 4252.75C75.8278 4252.75 75.6838 4252.8 75.6838 4253.07C75.6838 4253.33 75.8278 4253.47 76.0033 4253.47Z" fill="#30373F" fill-opacity="0.3"/>
<path d="M295.952 5012.18C296.346 5012.18 296.736 5012.26 297.1 5012.41C297.464 5012.56 297.794 5012.78 298.073 5013.06C298.352 5013.34 298.573 5013.67 298.723 5014.04C298.874 5014.4 298.952 5014.79 298.952 5015.18C298.952 5015.98 298.636 5016.74 298.073 5017.31C297.51 5017.87 296.747 5018.18 295.952 5018.18C295.558 5018.18 295.168 5018.11 294.804 5017.96C294.44 5017.81 294.109 5017.58 293.83 5017.31C293.268 5016.74 292.952 5015.98 292.952 5015.18C292.952 5014.39 293.268 5013.63 293.83 5013.06C294.393 5012.5 295.156 5012.18 295.952 5012.18V5012.18ZM295.352 5016.18C295.4 5016.35 295.394 5016.5 295.352 5016.63C295.352 5016.65 295.34 5016.66 295.334 5016.68C295.328 5016.68 295.322 5016.71 295.313 5016.72C295.28 5016.79 295.232 5016.86 295.175 5016.92C295.001 5017.11 294.752 5017.19 294.653 5017.13C294.539 5017.06 294.602 5016.79 294.8 5016.58C295.016 5016.35 295.328 5016.2 295.328 5016.2L295.352 5016.18ZM297.833 5013.47C297.698 5012.93 296.813 5012.76 295.979 5013.06C295.481 5013.23 294.941 5013.51 294.554 5013.87C294.095 5014.31 294.02 5014.68 294.05 5014.84C294.152 5015.39 294.914 5015.75 295.226 5016.02V5016.02C295.136 5016.07 294.464 5016.41 294.302 5016.75C294.14 5017.12 294.332 5017.38 294.452 5017.42C294.854 5017.53 295.259 5017.33 295.475 5017.01C295.685 5016.69 295.67 5016.29 295.577 5016.08C295.703 5016.05 295.85 5016.04 296.036 5016.06C296.564 5016.12 296.666 5016.45 296.645 5016.59C296.627 5016.73 296.516 5016.8 296.48 5016.83C296.444 5016.85 296.432 5016.86 296.435 5016.87C296.438 5016.9 296.456 5016.9 296.486 5016.89C296.531 5016.88 296.765 5016.78 296.774 5016.53C296.786 5016.2 296.477 5015.84 295.931 5015.85C295.706 5015.86 295.565 5015.88 295.463 5015.92L295.439 5015.89C295.1 5015.53 294.476 5015.27 294.503 5014.79C294.512 5014.61 294.572 5014.15 295.703 5013.59C296.627 5013.12 297.368 5013.25 297.497 5013.53C297.68 5013.93 297.101 5014.68 296.141 5014.79C295.775 5014.83 295.58 5014.69 295.532 5014.64C295.481 5014.58 295.475 5014.58 295.457 5014.58C295.424 5014.61 295.445 5014.65 295.457 5014.68C295.484 5014.76 295.604 5014.88 295.802 5014.96C295.979 5015.01 296.411 5015.05 296.93 5014.85C297.512 5014.62 297.968 5013.99 297.833 5013.47Z" fill="#30373F" fill-opacity="0.3"/>
<path d="M296.758 3839.58L298.494 3837.84L299.001 3838.35C298.929 3838.6 299.046 3838.88 299.28 3839.02V3840.68C299.1 3840.78 298.98 3840.98 298.98 3841.2C298.98 3841.36 299.043 3841.51 299.156 3841.63C299.269 3841.74 299.421 3841.8 299.581 3841.8C299.74 3841.8 299.893 3841.74 300.005 3841.63C300.118 3841.51 300.181 3841.36 300.181 3841.2C300.181 3840.98 300.061 3840.78 299.881 3840.68V3839.22L300.502 3839.85C300.481 3839.89 300.481 3839.95 300.481 3840C300.481 3840.16 300.545 3840.31 300.657 3840.42C300.77 3840.54 300.922 3840.6 301.082 3840.6C301.241 3840.6 301.394 3840.54 301.506 3840.42C301.619 3840.31 301.682 3840.16 301.682 3840C301.682 3839.84 301.619 3839.69 301.506 3839.58C301.394 3839.46 301.241 3839.4 301.082 3839.4C301.028 3839.4 300.977 3839.4 300.932 3839.42L300.16 3838.65C300.238 3838.37 300.094 3838.06 299.815 3837.95C299.686 3837.9 299.551 3837.89 299.43 3837.92L298.92 3837.41L299.157 3837.18C299.391 3836.94 299.77 3836.94 300.004 3837.18L302.403 3839.58C302.64 3839.81 302.64 3840.19 302.403 3840.42L300.004 3842.82C299.77 3843.06 299.391 3843.06 299.157 3842.82L296.758 3840.42C296.521 3840.19 296.521 3839.81 296.758 3839.58Z" fill="#30373F" fill-opacity="0.3"/>
<path d="M76.9729 5093.52C76.2566 5094.16 75.1839 5094.05 74.583 5093.3C73.9788 5092.53 74.0738 5091.4 74.7901 5090.77L74.9632 5090.63C74.3895 5091.28 74.3522 5092.3 74.9089 5093.01C75.4622 5093.71 76.4195 5093.85 77.129 5093.36L76.9729 5093.52ZM76.3686 5094.99C75.2925 5095.95 73.6868 5095.8 72.7838 5094.66C71.8775 5093.52 72.02 5091.82 73.0962 5090.86L73.4085 5090.63C72.587 5091.61 72.5462 5093.11 73.3677 5094.14C74.1892 5095.17 75.5878 5095.39 76.6436 5094.71L76.3686 5094.99ZM75.985 5096.74C74.4778 5098.08 72.2271 5097.87 70.9609 5096.28C69.6981 5094.68 69.895 5092.29 71.4022 5090.96L71.779 5090.68C70.5875 5092.04 70.5128 5094.17 71.6772 5095.64C72.8416 5097.11 74.8376 5097.4 76.3211 5096.4L75.985 5096.74Z" fill="#30373F" fill-opacity="0.3"/>
<circle cx="139.452" cy="5541.74" r="2" stroke="#30373F" stroke-opacity="0.3" stroke-width="4"/>
<circle cx="137.952" cy="4665.27" r="2" stroke="#30373F" stroke-opacity="0.3"/>
<circle cx="202.581" cy="3899.69" r="2.5" stroke="#30373F" stroke-opacity="0.3" stroke-width="2"/>
<rect x="309.811" y="5440.69" width="6.7" height="6.7" stroke="#30373F" stroke-opacity="0.3" stroke-width="1.3"/>
<path d="M19.0807 4163.95L20.5251 4158.61L21.9696 4163.95L23.414 4158.61L24.8585 4163.95L26.3029 4158.61L27.7474 4163.95L29.1918 4158.61L30.6362 4163.95L32.0807 4158.61" stroke="#30373F" stroke-opacity="0.3"/>
<path d="M228.597 4414.25L229.806 4408.9L231.016 4414.25L232.226 4408.9L233.435 4414.25L234.645 4408.9L235.855 4414.25L237.064 4408.9L238.274 4414.25L239.484 4408.9" stroke="#30373F" stroke-opacity="0.3" stroke-width="0.5"/>
<path d="M149.242 4043.95L150.353 4040.95L151.464 4043.95L152.575 4040.95L153.686 4043.95L154.797 4040.95L155.909 4043.95L157.02 4040.95L158.131 4043.95L159.242 4040.95" stroke="#30373F" stroke-opacity="0.3" stroke-width="0.5"/>
<path d="M234.64 5072.3L233.774 5070.8L232.908 5072.3L230.31 5076.8L229.444 5078.3H231.176H236.372H238.104L237.238 5076.8L234.64 5072.3Z" stroke="#30373F" stroke-opacity="0.3" stroke-width="2"/>
<path d="M31.9758 4743.61C31.1358 4743.61 30.8608 4743.88 30.7708 4744.06C31.0383 4744.15 31.2258 4744.36 31.2258 4744.61C31.2258 4744.77 31.1468 4744.92 31.0062 4745.03C30.8655 4745.14 30.6747 4745.21 30.4758 4745.21C30.2769 4745.21 30.0862 4745.14 29.9455 4745.03C29.8048 4744.92 29.7258 4744.77 29.7258 4744.61C29.7258 4744.35 29.9333 4744.12 30.2258 4744.04V4742.37C29.9333 4742.29 29.7258 4742.07 29.7258 4741.81C29.7258 4741.65 29.8048 4741.5 29.9455 4741.38C30.0862 4741.27 30.2769 4741.21 30.4758 4741.21C30.6747 4741.21 30.8655 4741.27 31.0062 4741.38C31.1468 4741.5 31.2258 4741.65 31.2258 4741.81C31.2258 4742.07 31.0183 4742.29 30.7258 4742.37V4743.43C30.9458 4743.3 31.2658 4743.21 31.7258 4743.21C32.3933 4743.21 32.6158 4742.94 32.6883 4742.76C32.4183 4742.67 32.2258 4742.46 32.2258 4742.21C32.2258 4742.05 32.3048 4741.9 32.4455 4741.78C32.5862 4741.67 32.7769 4741.61 32.9758 4741.61C33.1747 4741.61 33.3655 4741.67 33.5062 4741.78C33.6468 4741.9 33.7258 4742.05 33.7258 4742.21C33.7258 4742.48 33.5058 4742.71 33.2033 4742.78C33.1383 4743.07 32.8958 4743.61 31.9758 4743.61ZM30.4758 4744.41C30.4095 4744.41 30.3459 4744.43 30.2991 4744.47C30.2522 4744.5 30.2258 4744.55 30.2258 4744.61C30.2258 4744.66 30.2522 4744.71 30.2991 4744.75C30.3459 4744.79 30.4095 4744.81 30.4758 4744.81C30.5421 4744.81 30.6057 4744.79 30.6526 4744.75C30.6995 4744.71 30.7258 4744.66 30.7258 4744.61C30.7258 4744.55 30.6995 4744.5 30.6526 4744.47C30.6057 4744.43 30.5421 4744.41 30.4758 4744.41ZM30.4758 4741.61C30.4095 4741.61 30.3459 4741.63 30.2991 4741.67C30.2522 4741.7 30.2258 4741.75 30.2258 4741.81C30.2258 4741.86 30.2522 4741.91 30.2991 4741.95C30.3459 4741.99 30.4095 4742.01 30.4758 4742.01C30.5421 4742.01 30.6057 4741.99 30.6526 4741.95C30.6995 4741.91 30.7258 4741.86 30.7258 4741.81C30.7258 4741.75 30.6995 4741.7 30.6526 4741.67C30.6057 4741.63 30.5421 4741.61 30.4758 4741.61V4741.61ZM32.9758 4742.01C32.9095 4742.01 32.8459 4742.03 32.7991 4742.07C32.7522 4742.1 32.7258 4742.15 32.7258 4742.21C32.7258 4742.26 32.7522 4742.31 32.7991 4742.35C32.8459 4742.39 32.9095 4742.41 32.9758 4742.41C33.0421 4742.41 33.1057 4742.39 33.1526 4742.35C33.1995 4742.31 33.2258 4742.26 33.2258 4742.21C33.2258 4742.15 33.1995 4742.1 33.1526 4742.07C33.1057 4742.03 33.0421 4742.01 32.9758 4742.01Z" fill="#30373F" fill-opacity="0.3"/>
<path d="M332.629 2837.06H333.679L335.629 2841.06L337.579 2837.06H338.629L335.629 2843.06L332.629 2837.06ZM333.979 2837.06H334.879L335.629 2838.59L336.379 2837.06H337.279L335.629 2840.42L333.979 2837.06Z" fill="#30373F" fill-opacity="0.3"/>
<path d="M86.4194 3442.76L85.251 3440.34H87.5878L86.4194 3442.76ZM86.4194 3445.34L83.9194 3441.07H85.2281L86.4194 3443.47L87.6107 3441.07H88.9194L86.4194 3445.34Z" fill="#30373F" fill-opacity="0.3"/>
<path d="M-0.260563 2547.54L-0.424044 2548.47H2.99396L2.8833 2549.07H-0.532193L-0.698189 2550H2.71982L2.52867 2551.06L1.1504 2551.56L-0.0442656 2551.06L0.0387324 2550.6H-0.801308L-1 2551.71L0.974346 2552.54L3.2505 2551.71L3.55231 2550.04L3.61268 2549.7L4 2547.54H-0.260563Z" fill="#30373F" fill-opacity="0.3"/>
<path d="M169.452 3088.84L171.505 3088.34L171.782 3085.63H168.13L168.039 3084.72H171.873L171.974 3083.84H166.93L167.212 3086.51H170.687L170.571 3087.66L169.452 3087.92L168.332 3087.66L168.261 3086.92H167.252L167.399 3088.34L169.452 3088.84ZM165.452 3082.37H173.452L172.73 3089.57L169.452 3090.37L166.173 3089.57L165.452 3082.37Z" fill="#30373F" fill-opacity="0.3"/>
<path d="M256.048 2765.75C255.943 2765.75 255.834 2765.78 255.745 2765.82L252.852 2767.3C252.665 2767.4 252.548 2767.58 252.548 2767.77V2770.73C252.548 2770.93 252.665 2771.1 252.852 2771.2L253.61 2771.59C253.979 2771.75 254.104 2771.75 254.275 2771.75C254.819 2771.75 255.134 2771.46 255.134 2770.95V2768.03C255.134 2767.98 255.096 2767.95 255.049 2767.95H254.687C254.637 2767.95 254.598 2767.98 254.598 2768.03V2770.95C254.598 2771.17 254.333 2771.4 253.909 2771.21L253.112 2770.8C253.085 2770.79 253.069 2770.76 253.069 2770.73V2767.77C253.069 2767.74 253.085 2767.71 253.112 2767.7L256.006 2766.22C256.029 2766.21 256.068 2766.21 256.091 2766.22L258.984 2767.7C259.012 2767.71 259.027 2767.74 259.027 2767.77V2770.73C259.027 2770.76 259.012 2770.79 258.984 2770.8L256.091 2772.28C256.068 2772.3 256.029 2772.3 256.002 2772.28L255.271 2771.89C255.239 2771.88 255.208 2771.88 255.189 2771.89C254.983 2771.99 254.944 2772.01 254.753 2772.06C254.707 2772.08 254.633 2772.1 254.781 2772.17L255.745 2772.68C255.838 2772.73 255.939 2772.75 256.048 2772.75C256.157 2772.75 256.258 2772.73 256.352 2772.68L259.245 2771.2C259.432 2771.1 259.548 2770.93 259.548 2770.73V2767.77C259.548 2767.58 259.432 2767.4 259.245 2767.3L256.352 2765.82C256.262 2765.78 256.157 2765.75 256.048 2765.75ZM256.826 2767.87C256.002 2767.87 255.508 2768.18 255.508 2768.7C255.508 2769.25 255.998 2769.41 256.791 2769.48C257.736 2769.57 257.81 2769.69 257.81 2769.86C257.81 2770.14 257.549 2770.26 256.943 2770.26C256.173 2770.26 256.009 2770.09 255.951 2769.76C255.943 2769.72 255.908 2769.69 255.866 2769.69H255.492C255.446 2769.69 255.411 2769.73 255.411 2769.77C255.411 2770.2 255.675 2770.71 256.943 2770.71C257.857 2770.71 258.382 2770.39 258.382 2769.84C258.382 2769.28 257.962 2769.14 257.071 2769.03C256.173 2768.93 256.083 2768.87 256.083 2768.68C256.083 2768.53 256.161 2768.32 256.826 2768.32C257.409 2768.32 257.639 2768.44 257.728 2768.79C257.736 2768.83 257.771 2768.85 257.81 2768.85H258.187C258.207 2768.85 258.23 2768.84 258.246 2768.83C258.261 2768.81 258.273 2768.79 258.265 2768.77C258.211 2768.16 257.752 2767.87 256.826 2767.87Z" fill="#30373F" fill-opacity="0.3"/>
<path d="M22.2661 2187.43H22.7661V2188.43H22.2661V2190.93C22.2661 2191.2 22.2134 2191.45 22.1197 2191.64C22.0259 2191.82 21.8987 2191.93 21.7661 2191.93C21.8987 2191.93 22.0259 2192.04 22.1197 2192.22C22.2134 2192.41 22.2661 2192.66 22.2661 2192.93V2195.43H22.7661V2196.43H22.2661C21.9986 2196.3 21.7661 2195.98 21.7661 2195.43V2193.43C21.7661 2193.16 21.7134 2192.91 21.6197 2192.72C21.5259 2192.54 21.3987 2192.43 21.2661 2192.43H21.0161V2191.43H21.2661C21.3987 2191.43 21.5259 2191.32 21.6197 2191.14C21.7134 2190.95 21.7661 2190.7 21.7661 2190.43V2188.43C21.7661 2188.16 21.8188 2187.91 21.9126 2187.72C22.0063 2187.54 22.1335 2187.43 22.2661 2187.43V2187.43ZM25.7661 2187.43C25.8987 2187.43 26.0259 2187.54 26.1197 2187.72C26.2134 2187.91 26.2661 2188.16 26.2661 2188.43V2190.43C26.2661 2190.7 26.3188 2190.95 26.4126 2191.14C26.5063 2191.32 26.6335 2191.43 26.7661 2191.43H27.0161V2192.43H26.7661C26.6335 2192.43 26.5063 2192.54 26.4126 2192.72C26.3188 2192.91 26.2661 2193.16 26.2661 2193.43V2195.43C26.2661 2195.7 26.2134 2195.95 26.1197 2196.14C26.0259 2196.32 25.8987 2196.43 25.7661 2196.43H25.2661V2195.43H25.7661V2192.93C25.7661 2192.66 25.8188 2192.41 25.9126 2192.22C26.0063 2192.04 26.1335 2191.93 26.2661 2191.93C26.1335 2191.93 26.0063 2191.82 25.9126 2191.64C25.8188 2191.45 25.7661 2191.2 25.7661 2190.93V2188.43H25.2661V2187.43H25.7661ZM24.0161 2193.43C24.0824 2193.43 24.146 2193.48 24.1929 2193.58C24.2398 2193.67 24.2661 2193.8 24.2661 2193.93C24.2661 2194.06 24.2398 2194.19 24.1929 2194.28C24.146 2194.38 24.0824 2194.43 24.0161 2194.43C23.9498 2194.43 23.8862 2194.38 23.8393 2194.28C23.7925 2194.19 23.7661 2194.06 23.7661 2193.93C23.7661 2193.8 23.7925 2193.67 23.8393 2193.58C23.8862 2193.48 23.9498 2193.43 24.0161 2193.43V2193.43ZM23.0161 2193.43C23.0824 2193.43 23.146 2193.48 23.1929 2193.58C23.2398 2193.67 23.2661 2193.8 23.2661 2193.93C23.2661 2194.06 23.2398 2194.19 23.1929 2194.28C23.146 2194.38 23.0824 2194.43 23.0161 2194.43C22.9498 2194.43 22.8862 2194.38 22.8393 2194.28C22.7925 2194.19 22.7661 2194.06 22.7661 2193.93C22.7661 2193.8 22.7925 2193.67 22.8393 2193.58C22.8862 2193.48 22.9498 2193.43 23.0161 2193.43ZM25.0161 2193.43C25.0824 2193.43 25.146 2193.48 25.1929 2193.58C25.2398 2193.67 25.2661 2193.8 25.2661 2193.93C25.2661 2194.06 25.2398 2194.19 25.1929 2194.28C25.146 2194.38 25.0824 2194.43 25.0161 2194.43C24.9498 2194.43 24.8862 2194.38 24.8393 2194.28C24.7925 2194.19 24.7661 2194.06 24.7661 2193.93C24.7661 2193.8 24.7925 2193.67 24.8393 2193.58C24.8862 2193.48 24.9498 2193.43 25.0161 2193.43V2193.43Z" fill="#30373F" fill-opacity="0.3"/>
<path d="M359.644 2179.71C359.417 2178.42 358.407 2177.45 357.194 2177.45C356.23 2177.45 355.394 2178.06 354.977 2178.96C353.974 2179.08 353.194 2180.03 353.194 2181.2C353.194 2181.79 353.404 2182.37 353.779 2182.79C354.154 2183.21 354.663 2183.45 355.194 2183.45H359.527C359.746 2183.45 359.963 2183.4 360.165 2183.3C360.367 2183.21 360.551 2183.07 360.705 2182.9C360.86 2182.72 360.983 2182.52 361.067 2182.29C361.15 2182.06 361.194 2181.82 361.194 2181.57C361.194 2180.58 360.51 2179.78 359.644 2179.71Z" fill="#30373F" fill-opacity="0.3"/>
<path d="M80.5033 2434.27C80.8446 2434.27 81.172 2434.41 81.4133 2434.65C81.6547 2434.89 81.7903 2435.22 81.7903 2435.56V2437.26C81.7903 2437.6 81.6547 2437.93 81.4133 2438.17C81.172 2438.41 80.8446 2438.55 80.5033 2438.55H77.2903C77.2903 2438.72 77.4343 2438.98 77.6098 2438.98H79.5403V2439.74C79.5403 2440.08 79.4047 2440.4 79.1633 2440.65C78.922 2440.89 78.5946 2441.02 78.2533 2441.02H76.3273C75.9859 2441.02 75.6586 2440.89 75.4172 2440.65C75.1759 2440.4 75.0403 2440.08 75.0403 2439.74V2438.05C75.0403 2437.34 75.6163 2436.77 76.3273 2436.77H78.6898C79.4008 2436.77 79.9723 2436.19 79.9723 2435.48V2434.27H80.5033ZM78.5773 2439.58C78.3973 2439.58 78.2533 2439.71 78.2533 2439.98C78.2533 2440.24 78.3973 2440.3 78.5773 2440.3C78.6192 2440.3 78.6608 2440.29 78.6996 2440.27C78.7383 2440.26 78.7735 2440.23 78.8032 2440.2C78.8329 2440.18 78.8564 2440.14 78.8725 2440.1C78.8885 2440.06 78.8968 2440.02 78.8968 2439.98C78.8968 2439.71 78.7528 2439.58 78.5773 2439.58ZM74.0773 2438.77C73.3663 2438.77 72.7903 2438.2 72.7903 2437.49V2435.78C72.7903 2435.07 73.3663 2434.5 74.0773 2434.5H77.2903C77.2903 2434.32 77.1463 2434.07 76.9708 2434.07H75.0403V2433.31C75.0403 2432.6 75.6163 2432.02 76.3273 2432.02H78.2533C78.9643 2432.02 79.5403 2432.6 79.5403 2433.31V2435C79.5403 2435.71 78.9643 2436.28 78.2533 2436.28H75.8908C75.1798 2436.28 74.6083 2436.86 74.6083 2437.57V2438.77H74.0773ZM76.0033 2433.47C76.1833 2433.47 76.3273 2433.33 76.3273 2433.07C76.3273 2432.8 76.1833 2432.75 76.0033 2432.75C75.8278 2432.75 75.6838 2432.8 75.6838 2433.07C75.6838 2433.33 75.8278 2433.47 76.0033 2433.47Z" fill="#30373F" fill-opacity="0.3"/>
<path d="M295.952 3192.18C296.346 3192.18 296.736 3192.26 297.1 3192.41C297.464 3192.56 297.794 3192.78 298.073 3193.06C298.352 3193.34 298.573 3193.67 298.723 3194.04C298.874 3194.4 298.952 3194.79 298.952 3195.18C298.952 3195.98 298.636 3196.74 298.073 3197.31C297.51 3197.87 296.747 3198.18 295.952 3198.18C295.558 3198.18 295.168 3198.11 294.804 3197.96C294.44 3197.81 294.109 3197.58 293.83 3197.31C293.268 3196.74 292.952 3195.98 292.952 3195.18C292.952 3194.39 293.268 3193.63 293.83 3193.06C294.393 3192.5 295.156 3192.18 295.952 3192.18V3192.18ZM295.352 3196.18C295.4 3196.35 295.394 3196.5 295.352 3196.63C295.352 3196.65 295.34 3196.66 295.334 3196.68C295.328 3196.68 295.322 3196.71 295.313 3196.72C295.28 3196.79 295.232 3196.86 295.175 3196.92C295.001 3197.11 294.752 3197.19 294.653 3197.13C294.539 3197.06 294.602 3196.79 294.8 3196.58C295.016 3196.35 295.328 3196.2 295.328 3196.2L295.352 3196.18ZM297.833 3193.47C297.698 3192.93 296.813 3192.76 295.979 3193.06C295.481 3193.23 294.941 3193.51 294.554 3193.87C294.095 3194.31 294.02 3194.68 294.05 3194.84C294.152 3195.39 294.914 3195.75 295.226 3196.02V3196.02C295.136 3196.07 294.464 3196.41 294.302 3196.75C294.14 3197.12 294.332 3197.38 294.452 3197.42C294.854 3197.53 295.259 3197.33 295.475 3197.01C295.685 3196.69 295.67 3196.29 295.577 3196.08C295.703 3196.05 295.85 3196.04 296.036 3196.06C296.564 3196.12 296.666 3196.45 296.645 3196.59C296.627 3196.73 296.516 3196.8 296.48 3196.83C296.444 3196.85 296.432 3196.86 296.435 3196.87C296.438 3196.9 296.456 3196.9 296.486 3196.89C296.531 3196.88 296.765 3196.78 296.774 3196.53C296.786 3196.2 296.477 3195.84 295.931 3195.85C295.706 3195.86 295.565 3195.88 295.463 3195.92L295.439 3195.89C295.1 3195.53 294.476 3195.27 294.503 3194.79C294.512 3194.61 294.572 3194.15 295.703 3193.59C296.627 3193.12 297.368 3193.25 297.497 3193.53C297.68 3193.93 297.101 3194.68 296.141 3194.79C295.775 3194.83 295.58 3194.69 295.532 3194.64C295.481 3194.58 295.475 3194.58 295.457 3194.58C295.424 3194.61 295.445 3194.65 295.457 3194.68C295.484 3194.76 295.604 3194.88 295.802 3194.96C295.979 3195.01 296.411 3195.05 296.93 3194.85C297.512 3194.62 297.968 3193.99 297.833 3193.47Z" fill="#30373F" fill-opacity="0.3"/>
<path d="M296.758 2019.58L298.494 2017.84L299.001 2018.35C298.929 2018.6 299.046 2018.88 299.28 2019.02V2020.68C299.1 2020.78 298.98 2020.98 298.98 2021.2C298.98 2021.36 299.043 2021.51 299.156 2021.63C299.269 2021.74 299.421 2021.8 299.581 2021.8C299.74 2021.8 299.893 2021.74 300.005 2021.63C300.118 2021.51 300.181 2021.36 300.181 2021.2C300.181 2020.98 300.061 2020.78 299.881 2020.68V2019.22L300.502 2019.85C300.481 2019.89 300.481 2019.95 300.481 2020C300.481 2020.16 300.545 2020.31 300.657 2020.42C300.77 2020.54 300.922 2020.6 301.082 2020.6C301.241 2020.6 301.394 2020.54 301.506 2020.42C301.619 2020.31 301.682 2020.16 301.682 2020C301.682 2019.84 301.619 2019.69 301.506 2019.58C301.394 2019.46 301.241 2019.4 301.082 2019.4C301.028 2019.4 300.977 2019.4 300.932 2019.42L300.16 2018.65C300.238 2018.37 300.094 2018.06 299.815 2017.95C299.686 2017.9 299.551 2017.89 299.43 2017.92L298.92 2017.41L299.157 2017.18C299.391 2016.94 299.77 2016.94 300.004 2017.18L302.403 2019.58C302.64 2019.81 302.64 2020.19 302.403 2020.42L300.004 2022.82C299.77 2023.06 299.391 2023.06 299.157 2022.82L296.758 2020.42C296.521 2020.19 296.521 2019.81 296.758 2019.58Z" fill="#30373F" fill-opacity="0.3"/>
<path d="M76.9729 3273.52C76.2566 3274.16 75.1839 3274.05 74.583 3273.3C73.9788 3272.53 74.0738 3271.4 74.7901 3270.77L74.9632 3270.63C74.3895 3271.28 74.3522 3272.3 74.9089 3273.01C75.4622 3273.71 76.4195 3273.85 77.129 3273.36L76.9729 3273.52ZM76.3686 3274.99C75.2925 3275.95 73.6868 3275.8 72.7838 3274.66C71.8775 3273.52 72.02 3271.82 73.0962 3270.86L73.4085 3270.63C72.587 3271.61 72.5462 3273.11 73.3677 3274.14C74.1892 3275.17 75.5878 3275.39 76.6436 3274.71L76.3686 3274.99ZM75.985 3276.74C74.4778 3278.08 72.2271 3277.87 70.9609 3276.28C69.6981 3274.68 69.895 3272.29 71.4022 3270.96L71.779 3270.68C70.5875 3272.04 70.5128 3274.17 71.6772 3275.64C72.8416 3277.11 74.8376 3277.4 76.3211 3276.4L75.985 3276.74Z" fill="#30373F" fill-opacity="0.3"/>
<circle cx="139.452" cy="3721.74" r="2" stroke="#30373F" stroke-opacity="0.3" stroke-width="4"/>
<circle cx="137.952" cy="2845.27" r="2" stroke="#30373F" stroke-opacity="0.3"/>
<circle cx="202.581" cy="2079.69" r="2.5" stroke="#30373F" stroke-opacity="0.3" stroke-width="2"/>
<rect x="309.811" y="3620.69" width="6.7" height="6.7" stroke="#30373F" stroke-opacity="0.3" stroke-width="1.3"/>
<path d="M19.0807 2343.96L20.5251 2338.61L21.9696 2343.96L23.414 2338.61L24.8585 2343.96L26.3029 2338.61L27.7474 2343.96L29.1918 2338.61L30.6362 2343.96L32.0807 2338.61" stroke="#30373F" stroke-opacity="0.3"/>
<path d="M228.597 2594.25L229.806 2588.9L231.016 2594.25L232.226 2588.9L233.435 2594.25L234.645 2588.9L235.855 2594.25L237.064 2588.9L238.274 2594.25L239.484 2588.9" stroke="#30373F" stroke-opacity="0.3" stroke-width="0.5"/>
<path d="M149.242 2223.95L150.353 2220.95L151.464 2223.95L152.575 2220.95L153.686 2223.95L154.797 2220.95L155.909 2223.95L157.02 2220.95L158.131 2223.95L159.242 2220.95" stroke="#30373F" stroke-opacity="0.3" stroke-width="0.5"/>
<path d="M31.9758 2923.61C31.1358 2923.61 30.8608 2923.88 30.7708 2924.06C31.0383 2924.15 31.2258 2924.36 31.2258 2924.61C31.2258 2924.77 31.1468 2924.92 31.0062 2925.03C30.8655 2925.14 30.6747 2925.21 30.4758 2925.21C30.2769 2925.21 30.0862 2925.14 29.9455 2925.03C29.8048 2924.92 29.7258 2924.77 29.7258 2924.61C29.7258 2924.35 29.9333 2924.12 30.2258 2924.04V2922.37C29.9333 2922.29 29.7258 2922.07 29.7258 2921.81C29.7258 2921.65 29.8048 2921.5 29.9455 2921.38C30.0862 2921.27 30.2769 2921.21 30.4758 2921.21C30.6747 2921.21 30.8655 2921.27 31.0062 2921.38C31.1468 2921.5 31.2258 2921.65 31.2258 2921.81C31.2258 2922.07 31.0183 2922.29 30.7258 2922.37V2923.43C30.9458 2923.3 31.2658 2923.21 31.7258 2923.21C32.3933 2923.21 32.6158 2922.94 32.6883 2922.76C32.4183 2922.67 32.2258 2922.46 32.2258 2922.21C32.2258 2922.05 32.3048 2921.9 32.4455 2921.78C32.5862 2921.67 32.7769 2921.61 32.9758 2921.61C33.1747 2921.61 33.3655 2921.67 33.5062 2921.78C33.6468 2921.9 33.7258 2922.05 33.7258 2922.21C33.7258 2922.48 33.5058 2922.71 33.2033 2922.78C33.1383 2923.07 32.8958 2923.61 31.9758 2923.61ZM30.4758 2924.41C30.4095 2924.41 30.3459 2924.43 30.2991 2924.47C30.2522 2924.5 30.2258 2924.55 30.2258 2924.61C30.2258 2924.66 30.2522 2924.71 30.2991 2924.75C30.3459 2924.79 30.4095 2924.81 30.4758 2924.81C30.5421 2924.81 30.6057 2924.79 30.6526 2924.75C30.6995 2924.71 30.7258 2924.66 30.7258 2924.61C30.7258 2924.55 30.6995 2924.5 30.6526 2924.47C30.6057 2924.43 30.5421 2924.41 30.4758 2924.41ZM30.4758 2921.61C30.4095 2921.61 30.3459 2921.63 30.2991 2921.67C30.2522 2921.7 30.2258 2921.75 30.2258 2921.81C30.2258 2921.86 30.2522 2921.91 30.2991 2921.95C30.3459 2921.99 30.4095 2922.01 30.4758 2922.01C30.5421 2922.01 30.6057 2921.99 30.6526 2921.95C30.6995 2921.91 30.7258 2921.86 30.7258 2921.81C30.7258 2921.75 30.6995 2921.7 30.6526 2921.67C30.6057 2921.63 30.5421 2921.61 30.4758 2921.61V2921.61ZM32.9758 2922.01C32.9095 2922.01 32.8459 2922.03 32.7991 2922.07C32.7522 2922.1 32.7258 2922.15 32.7258 2922.21C32.7258 2922.26 32.7522 2922.31 32.7991 2922.35C32.8459 2922.39 32.9095 2922.41 32.9758 2922.41C33.0421 2922.41 33.1057 2922.39 33.1526 2922.35C33.1995 2922.31 33.2258 2922.26 33.2258 2922.21C33.2258 2922.15 33.1995 2922.1 33.1526 2922.07C33.1057 2922.03 33.0421 2922.01 32.9758 2922.01Z" fill="#30373F" fill-opacity="0.3"/>
<path d="M331.629 2538.06H332.679L334.629 2542.06L336.579 2538.06H337.629L334.629 2544.06L331.629 2538.06ZM332.979 2538.06H333.879L334.629 2539.59L335.379 2538.06H336.279L334.629 2541.42L332.979 2538.06Z" fill="#30373F" fill-opacity="0.3"/>
<path d="M85.4194 3143.76L84.251 3141.34H86.5878L85.4194 3143.76ZM85.4194 3146.34L82.9194 3142.07H84.2281L85.4194 3144.47L86.6107 3142.07H87.9194L85.4194 3146.34Z" fill="#30373F" fill-opacity="0.3"/>
<path d="M-1.26056 2248.54L-1.42404 2249.47H1.99396L1.8833 2250.07H-1.53219L-1.69819 2251H1.71982L1.52867 2252.06L0.150402 2252.56L-1.04427 2252.06L-0.961268 2251.6H-1.80131L-2 2252.71L-0.0256541 2253.54L2.2505 2252.71L2.55231 2251.04L2.61268 2250.7L3 2248.54H-1.26056Z" fill="#30373F" fill-opacity="0.3"/>
<path d="M168.452 2789.84L170.505 2789.34L170.782 2786.63H167.13L167.039 2785.72H170.873L170.974 2784.84H165.93L166.212 2787.51H169.687L169.571 2788.66L168.452 2788.92L167.332 2788.66L167.261 2787.92H166.252L166.399 2789.34L168.452 2789.84ZM164.452 2783.37H172.452L171.73 2790.57L168.452 2791.37L165.173 2790.57L164.452 2783.37Z" fill="#30373F" fill-opacity="0.3"/>
<path d="M255.048 2466.75C254.943 2466.75 254.834 2466.78 254.745 2466.82L251.852 2468.3C251.665 2468.4 251.548 2468.58 251.548 2468.77V2471.73C251.548 2471.93 251.665 2472.1 251.852 2472.2L252.61 2472.59C252.979 2472.75 253.104 2472.75 253.275 2472.75C253.819 2472.75 254.134 2472.46 254.134 2471.95V2469.03C254.134 2468.98 254.096 2468.95 254.049 2468.95H253.687C253.637 2468.95 253.598 2468.98 253.598 2469.03V2471.95C253.598 2472.17 253.333 2472.4 252.909 2472.21L252.112 2471.8C252.085 2471.79 252.069 2471.76 252.069 2471.73V2468.77C252.069 2468.74 252.085 2468.71 252.112 2468.7L255.006 2467.22C255.029 2467.21 255.068 2467.21 255.091 2467.22L257.984 2468.7C258.012 2468.71 258.027 2468.74 258.027 2468.77V2471.73C258.027 2471.76 258.012 2471.79 257.984 2471.8L255.091 2473.28C255.068 2473.3 255.029 2473.3 255.002 2473.28L254.271 2472.89C254.239 2472.88 254.208 2472.88 254.189 2472.89C253.983 2472.99 253.944 2473.01 253.753 2473.06C253.707 2473.08 253.633 2473.1 253.781 2473.17L254.745 2473.68C254.838 2473.73 254.939 2473.75 255.048 2473.75C255.157 2473.75 255.258 2473.73 255.352 2473.68L258.245 2472.2C258.432 2472.1 258.548 2471.93 258.548 2471.73V2468.77C258.548 2468.58 258.432 2468.4 258.245 2468.3L255.352 2466.82C255.262 2466.78 255.157 2466.75 255.048 2466.75ZM255.826 2468.87C255.002 2468.87 254.508 2469.18 254.508 2469.7C254.508 2470.25 254.998 2470.41 255.791 2470.48C256.736 2470.57 256.81 2470.69 256.81 2470.86C256.81 2471.14 256.549 2471.26 255.943 2471.26C255.173 2471.26 255.009 2471.09 254.951 2470.76C254.943 2470.72 254.908 2470.69 254.866 2470.69H254.492C254.446 2470.69 254.411 2470.73 254.411 2470.77C254.411 2471.2 254.675 2471.71 255.943 2471.71C256.857 2471.71 257.382 2471.39 257.382 2470.84C257.382 2470.28 256.962 2470.14 256.071 2470.03C255.173 2469.93 255.083 2469.87 255.083 2469.68C255.083 2469.53 255.161 2469.32 255.826 2469.32C256.409 2469.32 256.639 2469.44 256.728 2469.79C256.736 2469.83 256.771 2469.85 256.81 2469.85H257.187C257.207 2469.85 257.23 2469.84 257.246 2469.83C257.261 2469.81 257.273 2469.79 257.265 2469.77C257.211 2469.16 256.752 2468.87 255.826 2468.87Z" fill="#30373F" fill-opacity="0.3"/>
<path d="M21.2661 1888.43H21.7661V1889.43H21.2661V1891.93C21.2661 1892.19 21.2134 1892.45 21.1197 1892.64C21.0259 1892.82 20.8987 1892.93 20.7661 1892.93C20.8987 1892.93 21.0259 1893.04 21.1197 1893.22C21.2134 1893.41 21.2661 1893.66 21.2661 1893.93V1896.43H21.7661V1897.43H21.2661C20.9986 1897.29 20.7661 1896.98 20.7661 1896.43V1894.43C20.7661 1894.16 20.7134 1893.91 20.6197 1893.72C20.5259 1893.54 20.3987 1893.43 20.2661 1893.43H20.0161V1892.43H20.2661C20.3987 1892.43 20.5259 1892.32 20.6197 1892.14C20.7134 1891.95 20.7661 1891.69 20.7661 1891.43V1889.43C20.7661 1889.16 20.8188 1888.91 20.9126 1888.72C21.0063 1888.54 21.1335 1888.43 21.2661 1888.43V1888.43ZM24.7661 1888.43C24.8987 1888.43 25.0259 1888.54 25.1197 1888.72C25.2134 1888.91 25.2661 1889.16 25.2661 1889.43V1891.43C25.2661 1891.69 25.3188 1891.95 25.4126 1892.14C25.5063 1892.32 25.6335 1892.43 25.7661 1892.43H26.0161V1893.43H25.7661C25.6335 1893.43 25.5063 1893.54 25.4126 1893.72C25.3188 1893.91 25.2661 1894.16 25.2661 1894.43V1896.43C25.2661 1896.69 25.2134 1896.95 25.1197 1897.14C25.0259 1897.32 24.8987 1897.43 24.7661 1897.43H24.2661V1896.43H24.7661V1893.93C24.7661 1893.66 24.8188 1893.41 24.9126 1893.22C25.0063 1893.04 25.1335 1892.93 25.2661 1892.93C25.1335 1892.93 25.0063 1892.82 24.9126 1892.64C24.8188 1892.45 24.7661 1892.19 24.7661 1891.93V1889.43H24.2661V1888.43H24.7661ZM23.0161 1894.43C23.0824 1894.43 23.146 1894.48 23.1929 1894.58C23.2398 1894.67 23.2661 1894.8 23.2661 1894.93C23.2661 1895.06 23.2398 1895.19 23.1929 1895.28C23.146 1895.38 23.0824 1895.43 23.0161 1895.43C22.9498 1895.43 22.8862 1895.38 22.8393 1895.28C22.7925 1895.19 22.7661 1895.06 22.7661 1894.93C22.7661 1894.8 22.7925 1894.67 22.8393 1894.58C22.8862 1894.48 22.9498 1894.43 23.0161 1894.43V1894.43ZM22.0161 1894.43C22.0824 1894.43 22.146 1894.48 22.1929 1894.58C22.2398 1894.67 22.2661 1894.8 22.2661 1894.93C22.2661 1895.06 22.2398 1895.19 22.1929 1895.28C22.146 1895.38 22.0824 1895.43 22.0161 1895.43C21.9498 1895.43 21.8862 1895.38 21.8393 1895.28C21.7925 1895.19 21.7661 1895.06 21.7661 1894.93C21.7661 1894.8 21.7925 1894.67 21.8393 1894.58C21.8862 1894.48 21.9498 1894.43 22.0161 1894.43ZM24.0161 1894.43C24.0824 1894.43 24.146 1894.48 24.1929 1894.58C24.2398 1894.67 24.2661 1894.8 24.2661 1894.93C24.2661 1895.06 24.2398 1895.19 24.1929 1895.28C24.146 1895.38 24.0824 1895.43 24.0161 1895.43C23.9498 1895.43 23.8862 1895.38 23.8393 1895.28C23.7925 1895.19 23.7661 1895.06 23.7661 1894.93C23.7661 1894.8 23.7925 1894.67 23.8393 1894.58C23.8862 1894.48 23.9498 1894.43 24.0161 1894.43V1894.43Z" fill="#30373F" fill-opacity="0.3"/>
<path d="M197.45 1486.26C197.223 1484.97 196.213 1484 195 1484C194.037 1484 193.2 1484.61 192.783 1485.51C191.78 1485.63 191 1486.59 191 1487.75C191 1488.35 191.211 1488.92 191.586 1489.34C191.961 1489.76 192.47 1490 193 1490H197.333C197.552 1490 197.769 1489.95 197.971 1489.86C198.173 1489.76 198.357 1489.62 198.512 1489.45C198.667 1489.28 198.789 1489.07 198.873 1488.84C198.957 1488.62 199 1488.37 199 1488.12C199 1487.13 198.317 1486.33 197.45 1486.26Z" fill="#30373F" fill-opacity="0.3"/>
<path d="M79.5033 2135.27C79.8446 2135.27 80.172 2135.41 80.4133 2135.65C80.6547 2135.89 80.7903 2136.22 80.7903 2136.56V2138.26C80.7903 2138.6 80.6547 2138.93 80.4133 2139.17C80.172 2139.41 79.8446 2139.55 79.5033 2139.55H76.2903C76.2903 2139.72 76.4343 2139.98 76.6098 2139.98H78.5403V2140.74C78.5403 2141.08 78.4047 2141.4 78.1633 2141.65C77.922 2141.89 77.5946 2142.02 77.2533 2142.02H75.3273C74.9859 2142.02 74.6586 2141.89 74.4172 2141.65C74.1759 2141.4 74.0403 2141.08 74.0403 2140.74V2139.05C74.0403 2138.34 74.6163 2137.77 75.3273 2137.77H77.6898C78.4008 2137.77 78.9723 2137.19 78.9723 2136.48V2135.27H79.5033ZM77.5773 2140.58C77.3973 2140.58 77.2533 2140.71 77.2533 2140.98C77.2533 2141.24 77.3973 2141.3 77.5773 2141.3C77.6192 2141.3 77.6608 2141.29 77.6996 2141.27C77.7383 2141.26 77.7735 2141.23 77.8032 2141.2C77.8329 2141.18 77.8564 2141.14 77.8725 2141.1C77.8885 2141.06 77.8968 2141.02 77.8968 2140.98C77.8968 2140.71 77.7528 2140.58 77.5773 2140.58ZM73.0773 2139.77C72.3663 2139.77 71.7903 2139.2 71.7903 2138.49V2136.78C71.7903 2136.07 72.3663 2135.5 73.0773 2135.5H76.2903C76.2903 2135.32 76.1463 2135.07 75.9708 2135.07H74.0403V2134.31C74.0403 2133.6 74.6163 2133.02 75.3273 2133.02H77.2533C77.9643 2133.02 78.5403 2133.6 78.5403 2134.31V2136C78.5403 2136.71 77.9643 2137.28 77.2533 2137.28H74.8908C74.1798 2137.28 73.6083 2137.86 73.6083 2138.57V2139.77H73.0773ZM75.0033 2134.47C75.1833 2134.47 75.3273 2134.33 75.3273 2134.07C75.3273 2133.8 75.1833 2133.75 75.0033 2133.75C74.8278 2133.75 74.6838 2133.8 74.6838 2134.07C74.6838 2134.33 74.8278 2134.47 75.0033 2134.47Z" fill="#30373F" fill-opacity="0.3"/>
<path d="M294.952 2893.18C295.346 2893.18 295.736 2893.26 296.1 2893.41C296.464 2893.56 296.794 2893.78 297.073 2894.06C297.352 2894.34 297.573 2894.67 297.723 2895.04C297.874 2895.4 297.952 2895.79 297.952 2896.18C297.952 2896.98 297.636 2897.74 297.073 2898.31C296.51 2898.87 295.747 2899.18 294.952 2899.18C294.558 2899.18 294.168 2899.11 293.804 2898.96C293.44 2898.81 293.109 2898.58 292.83 2898.31C292.268 2897.74 291.952 2896.98 291.952 2896.18C291.952 2895.39 292.268 2894.63 292.83 2894.06C293.393 2893.5 294.156 2893.18 294.952 2893.18V2893.18ZM294.352 2897.18C294.4 2897.35 294.394 2897.5 294.352 2897.63C294.352 2897.65 294.34 2897.66 294.334 2897.68C294.328 2897.68 294.322 2897.71 294.313 2897.72C294.28 2897.79 294.232 2897.86 294.175 2897.92C294.001 2898.11 293.752 2898.19 293.653 2898.13C293.539 2898.06 293.602 2897.79 293.8 2897.58C294.016 2897.35 294.328 2897.2 294.328 2897.2L294.352 2897.18ZM296.833 2894.47C296.698 2893.93 295.813 2893.76 294.979 2894.06C294.481 2894.23 293.941 2894.51 293.554 2894.87C293.095 2895.31 293.02 2895.68 293.05 2895.84C293.152 2896.39 293.914 2896.75 294.226 2897.02V2897.02C294.136 2897.07 293.464 2897.41 293.302 2897.75C293.14 2898.12 293.332 2898.38 293.452 2898.42C293.854 2898.53 294.259 2898.33 294.475 2898.01C294.685 2897.69 294.67 2897.29 294.577 2897.08C294.703 2897.05 294.85 2897.04 295.036 2897.06C295.564 2897.12 295.666 2897.45 295.645 2897.59C295.627 2897.73 295.516 2897.8 295.48 2897.83C295.444 2897.85 295.432 2897.86 295.435 2897.87C295.438 2897.9 295.456 2897.9 295.486 2897.89C295.531 2897.88 295.765 2897.78 295.774 2897.53C295.786 2897.2 295.477 2896.84 294.931 2896.85C294.706 2896.86 294.565 2896.88 294.463 2896.92L294.439 2896.89C294.1 2896.53 293.476 2896.27 293.503 2895.79C293.512 2895.61 293.572 2895.15 294.703 2894.59C295.627 2894.12 296.368 2894.25 296.497 2894.53C296.68 2894.93 296.101 2895.68 295.141 2895.79C294.775 2895.83 294.58 2895.69 294.532 2895.64C294.481 2895.58 294.475 2895.58 294.457 2895.58C294.424 2895.61 294.445 2895.65 294.457 2895.68C294.484 2895.76 294.604 2895.88 294.802 2895.96C294.979 2896.01 295.411 2896.05 295.93 2895.85C296.512 2895.62 296.968 2894.99 296.833 2894.47Z" fill="#30373F" fill-opacity="0.3"/>
<path d="M295.758 1720.58L297.494 1718.84L298.001 1719.35C297.929 1719.6 298.046 1719.88 298.28 1720.02V1721.68C298.1 1721.78 297.98 1721.98 297.98 1722.2C297.98 1722.36 298.043 1722.51 298.156 1722.63C298.269 1722.74 298.421 1722.8 298.581 1722.8C298.74 1722.8 298.893 1722.74 299.005 1722.63C299.118 1722.51 299.181 1722.36 299.181 1722.2C299.181 1721.98 299.061 1721.78 298.881 1721.68V1720.22L299.502 1720.85C299.481 1720.89 299.481 1720.95 299.481 1721C299.481 1721.16 299.545 1721.31 299.657 1721.42C299.77 1721.54 299.922 1721.6 300.082 1721.6C300.241 1721.6 300.394 1721.54 300.506 1721.42C300.619 1721.31 300.682 1721.16 300.682 1721C300.682 1720.84 300.619 1720.69 300.506 1720.58C300.394 1720.46 300.241 1720.4 300.082 1720.4C300.028 1720.4 299.977 1720.4 299.932 1720.42L299.16 1719.65C299.238 1719.37 299.094 1719.06 298.815 1718.95C298.686 1718.9 298.551 1718.89 298.43 1718.92L297.92 1718.41L298.157 1718.18C298.391 1717.94 298.77 1717.94 299.004 1718.18L301.403 1720.58C301.64 1720.81 301.64 1721.19 301.403 1721.42L299.004 1723.82C298.77 1724.06 298.391 1724.06 298.157 1723.82L295.758 1721.42C295.521 1721.19 295.521 1720.81 295.758 1720.58Z" fill="#30373F" fill-opacity="0.3"/>
<path d="M75.9729 2974.52C75.2566 2975.16 74.1839 2975.05 73.583 2974.3C72.9788 2973.53 73.0738 2972.4 73.7901 2971.77L73.9632 2971.63C73.3895 2972.28 73.3522 2973.3 73.9089 2974.01C74.4622 2974.71 75.4195 2974.85 76.129 2974.36L75.9729 2974.52ZM75.3686 2975.99C74.2925 2976.95 72.6868 2976.8 71.7838 2975.66C70.8775 2974.52 71.02 2972.82 72.0962 2971.86L72.4085 2971.63C71.587 2972.61 71.5462 2974.11 72.3677 2975.14C73.1892 2976.17 74.5878 2976.39 75.6436 2975.71L75.3686 2975.99ZM74.985 2977.74C73.4778 2979.08 71.2271 2978.87 69.9609 2977.28C68.6981 2975.68 68.895 2973.29 70.4022 2971.96L70.779 2971.68C69.5875 2973.04 69.5128 2975.17 70.6772 2976.64C71.8416 2978.11 73.8376 2978.4 75.3211 2977.4L74.985 2977.74Z" fill="#30373F" fill-opacity="0.3"/>
<circle cx="138.452" cy="3422.74" r="2" stroke="#30373F" stroke-opacity="0.3" stroke-width="4"/>
<circle cx="136.952" cy="2546.27" r="2" stroke="#30373F" stroke-opacity="0.3"/>
<circle cx="201.581" cy="1780.69" r="2.5" stroke="#30373F" stroke-opacity="0.3" stroke-width="2"/>
<rect x="308.811" y="3321.69" width="6.7" height="6.7" stroke="#30373F" stroke-opacity="0.3" stroke-width="1.3"/>
<path d="M18.0807 2044.96L19.5251 2039.61L20.9696 2044.96L22.414 2039.61L23.8585 2044.96L25.3029 2039.61L26.7474 2044.96L28.1918 2039.61L29.6362 2044.96L31.0807 2039.61" stroke="#30373F" stroke-opacity="0.3"/>
<path d="M227.597 2295.25L228.806 2289.9L230.016 2295.25L231.226 2289.9L232.435 2295.25L233.645 2289.9L234.855 2295.25L236.064 2289.9L237.274 2295.25L238.484 2289.9" stroke="#30373F" stroke-opacity="0.3" stroke-width="0.5"/>
<path d="M148.242 1924.95L149.353 1921.95L150.464 1924.95L151.575 1921.95L152.686 1924.95L153.797 1921.95L154.909 1924.95L156.02 1921.95L157.131 1924.95L158.242 1921.95" stroke="#30373F" stroke-opacity="0.3" stroke-width="0.5"/>
<path d="M30.9758 2624.61C30.1358 2624.61 29.8608 2624.88 29.7708 2625.06C30.0383 2625.15 30.2258 2625.36 30.2258 2625.61C30.2258 2625.77 30.1468 2625.92 30.0062 2626.03C29.8655 2626.14 29.6747 2626.21 29.4758 2626.21C29.2769 2626.21 29.0862 2626.14 28.9455 2626.03C28.8048 2625.92 28.7258 2625.77 28.7258 2625.61C28.7258 2625.35 28.9333 2625.12 29.2258 2625.04V2623.37C28.9333 2623.29 28.7258 2623.07 28.7258 2622.81C28.7258 2622.65 28.8048 2622.5 28.9455 2622.38C29.0862 2622.27 29.2769 2622.21 29.4758 2622.21C29.6747 2622.21 29.8655 2622.27 30.0062 2622.38C30.1468 2622.5 30.2258 2622.65 30.2258 2622.81C30.2258 2623.07 30.0183 2623.29 29.7258 2623.37V2624.43C29.9458 2624.3 30.2658 2624.21 30.7258 2624.21C31.3933 2624.21 31.6158 2623.94 31.6883 2623.76C31.4183 2623.67 31.2258 2623.46 31.2258 2623.21C31.2258 2623.05 31.3048 2622.9 31.4455 2622.78C31.5862 2622.67 31.7769 2622.61 31.9758 2622.61C32.1747 2622.61 32.3655 2622.67 32.5062 2622.78C32.6468 2622.9 32.7258 2623.05 32.7258 2623.21C32.7258 2623.48 32.5058 2623.71 32.2033 2623.78C32.1383 2624.07 31.8958 2624.61 30.9758 2624.61ZM29.4758 2625.41C29.4095 2625.41 29.3459 2625.43 29.2991 2625.47C29.2522 2625.5 29.2258 2625.55 29.2258 2625.61C29.2258 2625.66 29.2522 2625.71 29.2991 2625.75C29.3459 2625.79 29.4095 2625.81 29.4758 2625.81C29.5421 2625.81 29.6057 2625.79 29.6526 2625.75C29.6995 2625.71 29.7258 2625.66 29.7258 2625.61C29.7258 2625.55 29.6995 2625.5 29.6526 2625.47C29.6057 2625.43 29.5421 2625.41 29.4758 2625.41ZM29.4758 2622.61C29.4095 2622.61 29.3459 2622.63 29.2991 2622.67C29.2522 2622.7 29.2258 2622.75 29.2258 2622.81C29.2258 2622.86 29.2522 2622.91 29.2991 2622.95C29.3459 2622.99 29.4095 2623.01 29.4758 2623.01C29.5421 2623.01 29.6057 2622.99 29.6526 2622.95C29.6995 2622.91 29.7258 2622.86 29.7258 2622.81C29.7258 2622.75 29.6995 2622.7 29.6526 2622.67C29.6057 2622.63 29.5421 2622.61 29.4758 2622.61V2622.61ZM31.9758 2623.01C31.9095 2623.01 31.8459 2623.03 31.7991 2623.07C31.7522 2623.1 31.7258 2623.15 31.7258 2623.21C31.7258 2623.26 31.7522 2623.31 31.7991 2623.35C31.8459 2623.39 31.9095 2623.41 31.9758 2623.41C32.0421 2623.41 32.1057 2623.39 32.1526 2623.35C32.1995 2623.31 32.2258 2623.26 32.2258 2623.21C32.2258 2623.15 32.1995 2623.1 32.1526 2623.07C32.1057 2623.03 32.0421 2623.01 31.9758 2623.01Z" fill="#30373F" fill-opacity="0.3"/>
<path d="M288 846H289.05L291 850L292.95 846H294L291 852L288 846ZM289.35 846H290.25L291 847.527L291.75 846H292.65L291 849.36L289.35 846Z" fill="#30373F" fill-opacity="0.3"/>
<path d="M87.4194 1425.76L86.251 1423.34H88.5878L87.4194 1425.76ZM87.4194 1428.34L84.9194 1424.07H86.2281L87.4194 1426.47L88.6107 1424.07H89.9194L87.4194 1428.34Z" fill="#30373F" fill-opacity="0.3"/>
<path d="M56.7394 575L56.576 575.928H59.994L59.8833 576.528H56.4678L56.3018 577.453H59.7198L59.5287 578.511L58.1504 579.014L56.9557 578.511L57.0387 578.056H56.1987L56 579.167L57.9743 580L60.2505 579.167L60.5523 577.492L60.6127 577.156L61 575H56.7394Z" fill="#30373F" fill-opacity="0.3"/>
<path d="M170.452 1071.84L172.505 1071.34L172.782 1068.63H169.13L169.039 1067.72H172.873L172.974 1066.84H167.93L168.212 1069.51H171.687L171.571 1070.66L170.452 1070.92L169.332 1070.66L169.261 1069.92H168.252L168.399 1071.34L170.452 1071.84ZM166.452 1065.37H174.452L173.73 1072.57L170.452 1073.37L167.173 1072.57L166.452 1065.37Z" fill="#30373F" fill-opacity="0.3"/>
<path d="M257.048 748.753C256.943 748.753 256.834 748.777 256.745 748.822L253.852 750.305C253.665 750.401 253.548 750.581 253.548 750.774V753.732C253.548 753.925 253.665 754.105 253.852 754.201L254.61 754.587C254.979 754.746 255.104 754.749 255.275 754.749C255.819 754.749 256.134 754.456 256.134 753.946V751.025C256.134 750.984 256.096 750.949 256.049 750.949H255.687C255.637 750.949 255.598 750.984 255.598 751.025V753.946C255.598 754.174 255.333 754.398 254.909 754.208L254.112 753.805C254.085 753.787 254.069 753.76 254.069 753.732V750.774C254.069 750.743 254.085 750.715 254.112 750.701L257.006 749.222C257.029 749.208 257.068 749.208 257.091 749.222L259.984 750.701C260.012 750.715 260.027 750.743 260.027 750.774V753.732C260.027 753.76 260.012 753.787 259.984 753.805L257.091 755.284C257.068 755.298 257.029 755.298 257.002 755.284L256.271 754.891C256.239 754.881 256.208 754.877 256.189 754.887C255.983 754.991 255.944 755.012 255.753 755.063C255.707 755.077 255.633 755.101 255.781 755.174L256.745 755.681C256.838 755.729 256.939 755.753 257.048 755.753C257.157 755.753 257.258 755.729 257.352 755.681L260.245 754.201C260.432 754.105 260.548 753.925 260.548 753.732V750.774C260.548 750.581 260.432 750.401 260.245 750.305L257.352 748.822C257.262 748.777 257.157 748.753 257.048 748.753ZM257.826 750.874C257.002 750.874 256.508 751.181 256.508 751.698C256.508 752.253 256.998 752.415 257.791 752.484C258.736 752.567 258.81 752.691 258.81 752.856C258.81 753.143 258.549 753.263 257.943 753.263C257.173 753.263 257.009 753.094 256.951 752.756C256.943 752.722 256.908 752.694 256.866 752.694H256.492C256.446 752.694 256.411 752.725 256.411 752.77C256.411 753.198 256.675 753.715 257.943 753.715C258.857 753.715 259.382 753.394 259.382 752.836C259.382 752.281 258.962 752.136 258.071 752.029C257.173 751.925 257.083 751.87 257.083 751.684C257.083 751.529 257.161 751.322 257.826 751.322C258.409 751.322 258.639 751.436 258.728 751.791C258.736 751.825 258.771 751.849 258.81 751.849H259.187C259.207 751.849 259.23 751.843 259.246 751.825C259.261 751.812 259.273 751.791 259.265 751.77C259.211 751.156 258.752 750.874 257.826 750.874Z" fill="#30373F" fill-opacity="0.3"/>
<path d="M23.2661 170.43H23.7661V171.43H23.2661V173.93C23.2661 174.195 23.2134 174.45 23.1197 174.637C23.0259 174.825 22.8987 174.93 22.7661 174.93C22.8987 174.93 23.0259 175.036 23.1197 175.223C23.2134 175.411 23.2661 175.665 23.2661 175.93V178.43H23.7661V179.43H23.2661C22.9986 179.295 22.7661 178.98 22.7661 178.43V176.43C22.7661 176.165 22.7134 175.911 22.6197 175.723C22.5259 175.536 22.3987 175.43 22.2661 175.43H22.0161V174.43H22.2661C22.3987 174.43 22.5259 174.325 22.6197 174.137C22.7134 173.95 22.7661 173.695 22.7661 173.43V171.43C22.7661 171.165 22.8188 170.911 22.9126 170.723C23.0063 170.536 23.1335 170.43 23.2661 170.43V170.43ZM26.7661 170.43C26.8987 170.43 27.0259 170.536 27.1197 170.723C27.2134 170.911 27.2661 171.165 27.2661 171.43V173.43C27.2661 173.695 27.3188 173.95 27.4126 174.137C27.5063 174.325 27.6335 174.43 27.7661 174.43H28.0161V175.43H27.7661C27.6335 175.43 27.5063 175.536 27.4126 175.723C27.3188 175.911 27.2661 176.165 27.2661 176.43V178.43C27.2661 178.695 27.2134 178.95 27.1197 179.137C27.0259 179.325 26.8987 179.43 26.7661 179.43H26.2661V178.43H26.7661V175.93C26.7661 175.665 26.8188 175.411 26.9126 175.223C27.0063 175.036 27.1335 174.93 27.2661 174.93C27.1335 174.93 27.0063 174.825 26.9126 174.637C26.8188 174.45 26.7661 174.195 26.7661 173.93V171.43H26.2661V170.43H26.7661ZM25.0161 176.43C25.0824 176.43 25.146 176.483 25.1929 176.577C25.2398 176.67 25.2661 176.798 25.2661 176.93C25.2661 177.063 25.2398 177.19 25.1929 177.284C25.146 177.377 25.0824 177.43 25.0161 177.43C24.9498 177.43 24.8862 177.377 24.8393 177.284C24.7925 177.19 24.7661 177.063 24.7661 176.93C24.7661 176.798 24.7925 176.67 24.8393 176.577C24.8862 176.483 24.9498 176.43 25.0161 176.43V176.43ZM24.0161 176.43C24.0824 176.43 24.146 176.483 24.1929 176.577C24.2398 176.67 24.2661 176.798 24.2661 176.93C24.2661 177.063 24.2398 177.19 24.1929 177.284C24.146 177.377 24.0824 177.43 24.0161 177.43C23.9498 177.43 23.8862 177.377 23.8393 177.284C23.7925 177.19 23.7661 177.063 23.7661 176.93C23.7661 176.798 23.7925 176.67 23.8393 176.577C23.8862 176.483 23.9498 176.43 24.0161 176.43ZM26.0161 176.43C26.0824 176.43 26.146 176.483 26.1929 176.577C26.2398 176.67 26.2661 176.798 26.2661 176.93C26.2661 177.063 26.2398 177.19 26.1929 177.284C26.146 177.377 26.0824 177.43 26.0161 177.43C25.9498 177.43 25.8862 177.377 25.8393 177.284C25.7925 177.19 25.7661 177.063 25.7661 176.93C25.7661 176.798 25.7925 176.67 25.8393 176.577C25.8862 176.483 25.9498 176.43 26.0161 176.43V176.43Z" fill="#30373F" fill-opacity="0.3"/>
<path d="M360.644 162.708C360.417 161.418 359.407 160.447 358.194 160.447C357.23 160.447 356.394 161.062 355.977 161.958C354.974 162.082 354.194 163.034 354.194 164.197C354.194 164.794 354.404 165.366 354.779 165.788C355.154 166.21 355.663 166.447 356.194 166.447H360.527C360.746 166.447 360.963 166.398 361.165 166.304C361.367 166.21 361.551 166.072 361.705 165.898C361.86 165.723 361.983 165.517 362.067 165.289C362.15 165.062 362.194 164.818 362.194 164.572C362.194 163.582 361.51 162.779 360.644 162.708Z" fill="#30373F" fill-opacity="0.3"/>
<path d="M81.5034 417.273C81.8447 417.273 82.1721 417.409 82.4135 417.65C82.6548 417.891 82.7904 418.219 82.7904 418.56V420.261C82.7904 420.602 82.6548 420.93 82.4135 421.171C82.1721 421.412 81.8447 421.548 81.5034 421.548H78.2904C78.2904 421.723 78.4344 421.98 78.6099 421.98H80.5404V422.736C80.5404 423.077 80.4048 423.405 80.1635 423.646C79.9221 423.887 79.5947 424.023 79.2534 424.023H77.3274C76.9861 424.023 76.6587 423.887 76.4174 423.646C76.176 423.405 76.0404 423.077 76.0404 422.736V421.048C76.0404 420.337 76.6164 419.766 77.3274 419.766H79.6899C80.4009 419.766 80.9724 419.19 80.9724 418.479V417.273H81.5034ZM79.5774 422.578C79.3974 422.578 79.2534 422.713 79.2534 422.979C79.2534 423.244 79.3974 423.298 79.5774 423.298C79.6194 423.298 79.6609 423.29 79.6997 423.274C79.7384 423.258 79.7737 423.235 79.8033 423.205C79.833 423.175 79.8565 423.14 79.8726 423.101C79.8886 423.062 79.8969 423.021 79.8969 422.979C79.8969 422.713 79.7529 422.578 79.5774 422.578ZM75.0774 421.773C74.3664 421.773 73.7904 421.197 73.7904 420.486V418.785C73.7904 418.074 74.3664 417.498 75.0774 417.498H78.2904C78.2904 417.322 78.1464 417.066 77.9709 417.066H76.0404V416.31C76.0404 415.599 76.6164 415.023 77.3274 415.023H79.2534C79.9644 415.023 80.5404 415.599 80.5404 416.31V417.997C80.5404 418.708 79.9644 419.28 79.2534 419.28H76.8909C76.1799 419.28 75.6084 419.856 75.6084 420.567V421.773H75.0774ZM77.0034 416.467C77.1834 416.467 77.3274 416.332 77.3274 416.067C77.3274 415.801 77.1834 415.747 77.0034 415.747C76.8279 415.747 76.6839 415.801 76.6839 416.067C76.6839 416.332 76.8279 416.467 77.0034 416.467Z" fill="#30373F" fill-opacity="0.3"/>
<path d="M296.952 1175.18C297.346 1175.18 297.736 1175.26 298.1 1175.41C298.464 1175.56 298.794 1175.78 299.073 1176.06C299.352 1176.34 299.573 1176.67 299.723 1177.04C299.874 1177.4 299.952 1177.79 299.952 1178.18C299.952 1178.98 299.636 1179.74 299.073 1180.31C298.51 1180.87 297.747 1181.18 296.952 1181.18C296.558 1181.18 296.168 1181.11 295.804 1180.96C295.44 1180.81 295.109 1180.58 294.83 1180.31C294.268 1179.74 293.952 1178.98 293.952 1178.18C293.952 1177.39 294.268 1176.63 294.83 1176.06C295.393 1175.5 296.156 1175.18 296.952 1175.18V1175.18ZM296.352 1179.18C296.4 1179.35 296.394 1179.5 296.352 1179.63C296.352 1179.65 296.34 1179.66 296.334 1179.68C296.328 1179.68 296.322 1179.71 296.313 1179.72C296.28 1179.79 296.232 1179.86 296.175 1179.92C296.001 1180.11 295.752 1180.19 295.653 1180.13C295.539 1180.06 295.602 1179.79 295.8 1179.58C296.016 1179.35 296.328 1179.2 296.328 1179.2L296.352 1179.18ZM298.833 1176.47C298.698 1175.93 297.813 1175.76 296.979 1176.06C296.481 1176.23 295.941 1176.51 295.554 1176.87C295.095 1177.31 295.02 1177.68 295.05 1177.84C295.152 1178.39 295.914 1178.75 296.226 1179.02V1179.02C296.136 1179.07 295.464 1179.41 295.302 1179.75C295.14 1180.12 295.332 1180.38 295.452 1180.42C295.854 1180.53 296.259 1180.33 296.475 1180.01C296.685 1179.69 296.67 1179.29 296.577 1179.08C296.703 1179.05 296.85 1179.04 297.036 1179.06C297.564 1179.12 297.666 1179.45 297.645 1179.59C297.627 1179.73 297.516 1179.8 297.48 1179.83C297.444 1179.85 297.432 1179.86 297.435 1179.87C297.438 1179.9 297.456 1179.9 297.486 1179.89C297.531 1179.88 297.765 1179.78 297.774 1179.53C297.786 1179.2 297.477 1178.84 296.931 1178.85C296.706 1178.86 296.565 1178.88 296.463 1178.92L296.439 1178.89C296.1 1178.53 295.476 1178.27 295.503 1177.79C295.512 1177.61 295.572 1177.15 296.703 1176.59C297.627 1176.12 298.368 1176.25 298.497 1176.53C298.68 1176.93 298.101 1177.68 297.141 1177.79C296.775 1177.83 296.58 1177.69 296.532 1177.64C296.481 1177.58 296.475 1177.58 296.457 1177.58C296.424 1177.61 296.445 1177.65 296.457 1177.68C296.484 1177.76 296.604 1177.88 296.802 1177.96C296.979 1178.01 297.411 1178.05 297.93 1177.85C298.512 1177.62 298.968 1176.99 298.833 1176.47Z" fill="#30373F" fill-opacity="0.3"/>
<path d="M297.759 2.57668L299.494 0.838379L300.001 1.34876C299.929 1.60395 300.046 1.88316 300.28 2.01826V3.68151C300.1 3.78359 299.98 3.97873 299.98 4.2009C299.98 4.36015 300.043 4.51288 300.156 4.62548C300.269 4.73809 300.421 4.80135 300.581 4.80135C300.74 4.80135 300.893 4.73809 301.005 4.62548C301.118 4.51288 301.181 4.36015 301.181 4.2009C301.181 3.97873 301.061 3.78359 300.881 3.68151V2.22242L301.502 2.84989C301.481 2.89492 301.481 2.94596 301.481 3C301.481 3.15925 301.545 3.31198 301.657 3.42458C301.77 3.53719 301.923 3.60045 302.082 3.60045C302.241 3.60045 302.394 3.53719 302.506 3.42458C302.619 3.31198 302.682 3.15925 302.682 3C302.682 2.84075 302.619 2.68802 302.506 2.57542C302.394 2.46281 302.241 2.39955 302.082 2.39955C302.028 2.39955 301.977 2.39955 301.932 2.42057L301.16 1.64899C301.238 1.36978 301.094 1.06355 300.815 0.94646C300.686 0.898424 300.551 0.886415 300.431 0.91944L299.92 0.412059L300.157 0.177883C300.392 -0.0592945 300.77 -0.0592945 301.004 0.177883L303.403 2.57668C303.64 2.81086 303.64 3.18914 303.403 3.42332L301.004 5.82212C300.77 6.05929 300.392 6.05929 300.157 5.82212L297.759 3.42332C297.521 3.18914 297.521 2.81086 297.759 2.57668Z" fill="#30373F" fill-opacity="0.3"/>
<path d="M77.973 1256.52C77.2567 1257.16 76.184 1257.05 75.5831 1256.3C74.9789 1255.53 75.0739 1254.4 75.7902 1253.77L75.9633 1253.63C75.3896 1254.28 75.3523 1255.3 75.909 1256.01C76.4624 1256.71 77.4197 1256.85 78.1292 1256.36L77.973 1256.52ZM77.3687 1257.99C76.2926 1258.95 74.6869 1258.8 73.784 1257.66C72.8776 1256.52 73.0202 1254.82 74.0963 1253.86L74.4086 1253.63C73.5871 1254.61 73.5463 1256.11 74.3678 1257.14C75.1894 1258.17 76.588 1258.39 77.6437 1257.71L77.3687 1257.99ZM76.9851 1259.74C75.4779 1261.08 73.2272 1260.87 71.961 1259.28C70.6982 1257.68 70.8951 1255.29 72.4023 1253.96L72.7791 1253.68C71.5876 1255.04 71.5129 1257.17 72.6773 1258.64C73.8417 1260.11 75.8377 1260.4 77.3212 1259.4L76.9851 1259.74Z" fill="#30373F" fill-opacity="0.3"/>
<circle cx="140.452" cy="1704.74" r="2" stroke="#30373F" stroke-opacity="0.3" stroke-width="4"/>
<circle cx="138.952" cy="828.268" r="2" stroke="#30373F" stroke-opacity="0.3"/>
<circle cx="203.581" cy="62.687" r="2.5" stroke="#30373F" stroke-opacity="0.3" stroke-width="2"/>
<rect x="310.811" y="1603.69" width="6.7" height="6.7" stroke="#30373F" stroke-opacity="0.3" stroke-width="1.3"/>
<path d="M20.0807 326.955L21.5251 321.607L22.9696 326.955L24.414 321.607L25.8585 326.955L27.3029 321.607L28.7474 326.955L30.1918 321.607L31.6362 326.955L33.0807 321.607" stroke="#30373F" stroke-opacity="0.3"/>
<path d="M229.597 577.253L230.93 571.904L232.263 577.253L233.597 571.904L234.93 577.253L236.263 571.904L237.597 577.253L238.93 571.904L240.263 577.253L241.597 571.904" stroke="#30373F" stroke-opacity="0.3" stroke-width="0.5"/>
<path d="M150.242 206.946L151.909 203.946L153.575 206.946L155.242 203.946L156.909 206.946L158.575 203.946L160.242 206.946L161.909 203.946L163.575 206.946L165.242 203.946" stroke="#30373F" stroke-opacity="0.3" stroke-width="0.5"/>
<path d="M235.207 1235.55L234.774 1234.8L234.341 1235.55L231.743 1240.05L231.31 1240.8H232.176H237.372H238.238L237.805 1240.05L235.207 1235.55Z" stroke="#30373F" stroke-opacity="0.3"/>
<path d="M32.9758 907.808C32.1358 907.808 31.8608 908.213 31.7708 908.48C32.0383 908.618 32.2258 908.936 32.2258 909.308C32.2258 909.547 32.1468 909.776 32.0062 909.944C31.8655 910.113 31.6747 910.208 31.4758 910.208C31.2769 910.208 31.0862 910.113 30.9455 909.944C30.8048 909.776 30.7258 909.547 30.7258 909.308C30.7258 908.915 30.9333 908.582 31.2258 908.459V905.957C30.9333 905.834 30.7258 905.501 30.7258 905.108C30.7258 904.869 30.8048 904.64 30.9455 904.472C31.0862 904.303 31.2769 904.208 31.4758 904.208C31.6747 904.208 31.8655 904.303 32.0062 904.472C32.1468 904.64 32.2258 904.869 32.2258 905.108C32.2258 905.501 32.0183 905.834 31.7258 905.957V907.544C31.9458 907.349 32.2658 907.208 32.7258 907.208C33.3933 907.208 33.6158 906.806 33.6883 906.539C33.4183 906.404 33.2258 906.083 33.2258 905.708C33.2258 905.469 33.3048 905.24 33.4455 905.072C33.5862 904.903 33.7769 904.808 33.9758 904.808C34.1747 904.808 34.3655 904.903 34.5062 905.072C34.6468 905.24 34.7258 905.469 34.7258 905.708C34.7258 906.11 34.5058 906.458 34.2033 906.566C34.1383 906.995 33.8958 907.808 32.9758 907.808ZM31.4758 909.008C31.4095 909.008 31.3459 909.04 31.2991 909.096C31.2522 909.152 31.2258 909.228 31.2258 909.308C31.2258 909.388 31.2522 909.464 31.2991 909.52C31.3459 909.576 31.4095 909.608 31.4758 909.608C31.5421 909.608 31.6057 909.576 31.6526 909.52C31.6995 909.464 31.7258 909.388 31.7258 909.308C31.7258 909.228 31.6995 909.152 31.6526 909.096C31.6057 909.04 31.5421 909.008 31.4758 909.008ZM31.4758 904.808C31.4095 904.808 31.3459 904.84 31.2991 904.896C31.2522 904.952 31.2258 905.028 31.2258 905.108C31.2258 905.188 31.2522 905.264 31.2991 905.32C31.3459 905.376 31.4095 905.408 31.4758 905.408C31.5421 905.408 31.6057 905.376 31.6526 905.32C31.6995 905.264 31.7258 905.188 31.7258 905.108C31.7258 905.028 31.6995 904.952 31.6526 904.896C31.6057 904.84 31.5421 904.808 31.4758 904.808V904.808ZM33.9758 905.408C33.9095 905.408 33.8459 905.44 33.7991 905.496C33.7522 905.552 33.7258 905.628 33.7258 905.708C33.7258 905.788 33.7522 905.864 33.7991 905.92C33.8459 905.976 33.9095 906.008 33.9758 906.008C34.0421 906.008 34.1057 905.976 34.1526 905.92C34.1995 905.864 34.2258 905.788 34.2258 905.708C34.2258 905.628 34.1995 905.552 34.1526 905.496C34.1057 905.44 34.0421 905.408 33.9758 905.408Z" fill="#30373F" fill-opacity="0.3"/>
</svg>
