<svg width="1512" height="5743" viewBox="0 0 1512 5743" fill="transparent" xmlns="http://www.w3.org/2000/svg">
<line x1="123.086" y1="5723.07" x2="123.086" y2="-16" stroke="#30373F" stroke-opacity="0.1" stroke-width="2"/>
<line x1="307.086" y1="5729.15" x2="307.086" y2="-9.92676" stroke="#30373F" stroke-opacity="0.1" stroke-width="2"/>
<line x1="491.086" y1="5740.15" x2="491.086" stroke="#30373F" stroke-opacity="0.1" stroke-width="2"/>
<line x1="675.086" y1="5753.15" x2="675.086" stroke="#30373F" stroke-opacity="0.1" stroke-width="2"/>
<line x1="859.086" y1="5753.15" x2="859.086" y2="-19" stroke="#30373F" stroke-opacity="0.1" stroke-width="2"/>
<line x1="1043.09" y1="5753.15" x2="1043.09" stroke="#30373F" stroke-opacity="0.1" stroke-width="2"/>
<line x1="1227.09" y1="5751.15" x2="1227.09" stroke="#30373F" stroke-opacity="0.1" stroke-width="2"/>
<line x1="1411.09" y1="5757.15" x2="1411.09" y2="-6" stroke="#30373F" stroke-opacity="0.1" stroke-width="2"/>
<path d="M619.712 2389C619.712 2393.43 616.144 2397 611.765 2397C607.386 2397 603.818 2393.43 603.818 2389C603.818 2384.57 607.386 2381 611.765 2381C616.144 2381 619.712 2384.57 619.712 2389Z" stroke="#30373F" stroke-opacity="0.5" stroke-width="4"/>
<path d="M619.712 1162C619.712 1166.43 616.144 1170 611.765 1170C607.386 1170 603.818 1166.43 603.818 1162C603.818 1157.57 607.386 1154 611.765 1154C616.144 1154 619.712 1157.57 619.712 1162Z" stroke="#30373F" stroke-opacity="0.5" stroke-width="4"/>
<path d="M881.32 87C881.32 91.4283 877.752 95 873.373 95C868.994 95 865.426 91.4283 865.426 87C865.426 82.5717 868.994 79 873.373 79C877.752 79 881.32 82.5717 881.32 87Z" stroke="#30373F" stroke-opacity="0.5" stroke-width="4"/>
<rect x="1317.52" y="2243.5" width="18.8835" height="19" stroke="#30373F" stroke-opacity="0.5" stroke-width="3"/>
<path d="M123.365 452.5L128.338 445L133.312 452.5L138.285 445L143.259 452.5L148.232 445L153.206 452.5L158.179 445L163.153 452.5L168.126 445" stroke="#30373F" stroke-opacity="0.5" stroke-width="2.5"/>
<path d="M4 22.5L8.97353 15L13.9471 22.5L18.9206 15L23.8941 22.5L28.8676 15L33.8412 22.5L38.8147 15L43.7882 22.5L48.7617 15" stroke="#30373F" stroke-opacity="0.5" stroke-width="2.5"/>
<path d="M984.78 803.5L989.753 796L994.727 803.5L999.7 796L1004.67 803.5L1009.65 796L1014.62 803.5L1019.59 796L1024.57 803.5L1029.54 796" stroke="#30373F" stroke-opacity="0.5" stroke-width="2.5"/>
<path d="M1014.62 803.5L1019.59 796L1024.57 803.5L1029.54 796L1034.51 803.5L1039.49 796L1044.46 803.5L1049.44 796L1054.41 803.5L1059.38 796" stroke="#30373F" stroke-opacity="0.5" stroke-width="2.5"/>
<path d="M1044.46 803.5L1049.44 796L1054.41 803.5L1059.38 796L1064.36 803.5L1069.33 796L1074.3 803.5L1079.28 796L1084.25 803.5L1089.22 796" stroke="#30373F" stroke-opacity="0.5" stroke-width="2.5"/>
<path d="M658.516 287.5L663.49 280L668.463 287.5L673.437 280L678.41 287.5L683.384 280L688.357 287.5L693.331 280L698.304 287.5L703.278 280" stroke="#30373F" stroke-opacity="0.5" stroke-width="2.5"/>
<path d="M1007.47 1726.25L1006.17 1723.99L1004.86 1726.25L994.097 1745L992.807 1747.25H995.398H1016.93H1019.52L1018.23 1745L1007.47 1726.25Z" stroke="#30373F" stroke-opacity="0.5" stroke-width="3"/>
<rect x="1486.62" y="1501.5" width="18.8835" height="19" stroke="#30373F" stroke-opacity="0.5" stroke-width="3"/>
<circle cx="577" cy="5026" r="8" stroke="#30373F" stroke-opacity="0.5" stroke-width="4"/>
<circle cx="577" cy="3799" r="8" stroke="#30373F" stroke-opacity="0.5" stroke-width="4"/>
<circle cx="840" cy="2724" r="8" stroke="#30373F" stroke-opacity="0.5" stroke-width="4"/>
<rect x="1286.5" y="4880.5" width="19" height="19" stroke="#30373F" stroke-opacity="0.5" stroke-width="3"/>
<path d="M86 3089.5L91 3082L96 3089.5L101 3082L106 3089.5L111 3082L116 3089.5L121 3082L126 3089.5L131 3082" stroke="#30373F" stroke-opacity="0.5" stroke-width="2.5"/>
<path d="M952 3440.5L957 3433L962 3440.5L967 3433L972 3440.5L977 3433L982 3440.5L987 3433L992 3440.5L997 3433" stroke="#30373F" stroke-opacity="0.5" stroke-width="2.5"/>
<path d="M624 2924.5L629 2917L634 2924.5L639 2917L644 2924.5L649 2917L654 2924.5L659 2917L664 2924.5L669 2917" stroke="#30373F" stroke-opacity="0.5" stroke-width="2.5"/>
<path d="M974.799 4363.25L973.5 4361L972.201 4363.25L961.376 4382L960.077 4384.25H962.675H984.325H986.923L985.624 4382L974.799 4363.25Z" stroke="#30373F" stroke-opacity="0.5" stroke-width="3"/>
</svg>
