<svg width="712" height="747" viewBox="0 0 712 747" fill="none" xmlns="http://www.w3.org/2000/svg">
<circle cx="166" cy="381" r="270" fill="#181922" fill-opacity="0.6"/>
<line x1="599.787" y1="427.592" x2="392.292" y2="635.087" stroke="#2E9A45" stroke-opacity="0.3"/>
<line x1="557.994" y1="527.367" x2="491.359" y2="594.002" stroke="#2E9A45" stroke-opacity="0.3"/>
<line y1="-0.5" x2="224.743" y2="0.5" transform="matrix(-0.707107 0.707107 0.707107 0.707107 587.899 467.057)" stroke="#2E9A45" stroke-opacity="0.3"/>
<line x1="604.382" y1="394.713" x2="359.413" y2="639.682" stroke="#2E9A45" stroke-opacity="0.3"/>
<path d="M604.459 365.644L467.402 502.701L330.344 639.759" stroke="#2E9A45" stroke-opacity="0.3"/>
<line x1="602.469" y1="340.058" x2="304.757" y2="637.769" stroke="#2E9A45" stroke-opacity="0.3"/>
<line x1="598.042" y1="316.2" x2="280.897" y2="633.345" stroke="#2E9A45" stroke-opacity="0.3"/>
<line x1="592.227" y1="293.731" x2="257.737" y2="628.221" stroke="#2E9A45" stroke-opacity="0.3"/>
<line y1="-0.5" x2="491.689" y2="-0.5" transform="matrix(-0.705667 0.708543 -0.708491 -0.70572 583.964 271.588)" stroke="#2E9A45" stroke-opacity="0.3"/>
<line x1="575.033" y1="252.941" x2="216.947" y2="611.027" stroke="#2E9A45" stroke-opacity="0.3" />
<line x1="565.054" y1="234.636" x2="200.03" y2="599.661" stroke="#2E9A45" stroke-opacity="0.3"/>
<line x1="552.995" y1="218.411" x2="182.418" y2="588.988" stroke="#2E9A45" stroke-opacity="0.3"/>
<line y1="-0.5" x2="527.02" y2="-0.5" transform="matrix(-0.708447 0.705764 -0.705813 -0.708398 539.886 202.528)" stroke="#2E9A45" stroke-opacity="0.3"/>
<line y1="-0.5" x2="527.02" y2="-0.5" transform="matrix(-0.708447 0.705764 -0.705813 -0.708398 525.037 187.679)" stroke="#2E9A45" stroke-opacity="0.3"/>
<line x1="76.2282" y1="320.411" x2="283.723" y2="112.916" stroke="#2E9A45" stroke-opacity="0.3"/>
<line x1="118.012" y1="220.627" x2="184.647" y2="153.992" stroke="#2E9A45" stroke-opacity="0.3"/>
<line y1="-0.5" x2="224.743" y2="0.5" transform="matrix(0.707107 -0.707107 -0.707107 -0.707107 88.1165 280.946)" stroke="#2E9A45" stroke-opacity="0.3"/>
<line x1="71.6333" y1="353.29" x2="316.602" y2="108.321" stroke="#2E9A45" stroke-opacity="0.3"/>
<path d="M71.5557 382.359L208.613 245.302L345.671 108.244" stroke="#2E9A45" stroke-opacity="0.3"/>
<line x1="73.5466" y1="407.945" x2="371.258" y2="110.234" stroke="#2E9A45" stroke-opacity="0.3"/>
<line x1="77.9736" y1="431.803" x2="395.118" y2="114.658" stroke="#2E9A45" stroke-opacity="0.3"/>
<line x1="83.788" y1="454.272" x2="418.279" y2="119.782" stroke="#2E9A45" stroke-opacity="0.3"/>
<line y1="-0.5" x2="491.689" y2="-0.5" transform="matrix(0.705667 -0.708543 0.708491 0.70572 92.0513 476.415)" stroke="#2E9A45" stroke-opacity="0.3"/>
<line x1="100.982" y1="495.061" x2="459.067" y2="136.976" stroke="#2E9A45" stroke-opacity="0.3"/>
<line x1="110.961" y1="513.367" x2="475.986" y2="148.342" stroke="#2E9A45" stroke-opacity="0.3"/>
<line x1="123.021" y1="529.591" x2="493.597" y2="159.014" stroke="#2E9A45" stroke-opacity="0.3"/>
<line y1="-0.5" x2="527.02" y2="-0.5" transform="matrix(0.708447 -0.705764 0.705813 0.708398 136.129 545.475)" stroke="#2E9A45" stroke-opacity="0.3"/>
</svg>
